<?xml version="1.0" encoding="utf-8"?>
<!-- Generator: Adobe Illustrator 18.1.1, SVG Export Plug-In . SVG Version: 6.00 Build 0)  -->
<svg version="1.1" id="Layer_1" xmlns="http://www.w3.org/2000/svg" xmlns:xlink="http://www.w3.org/1999/xlink" x="0px" y="0px"
	 viewBox="0 0 28 28" enable-background="new 0 0 28 28" xml:space="preserve">
<path id="Build" d="M14,2C7.4,2,2,7.4,2,14c0,6.6,5.4,12,12,12s12-5.4,12-12C26,7.4,20.6,2,14,2z M7.1,8.9L8,8
	c0.1-0.1,0.3-0.1,0.5,0l1.7,1.1c0.1,0.1,0.2,0.3,0.2,0.5l0,0.3c0,0.2,0.1,0.4,0.2,0.5l1.8,1.8l-1.1,1.1l-1.8-1.7
	c-0.1-0.1-0.3-0.2-0.5-0.2l-0.3,0c-0.2,0-0.4-0.1-0.5-0.2L7.1,9.3C7,9.2,7,9,7.1,8.9z M20.2,18.8l-2.1,2.1c-0.1,0.1-0.3,0.1-0.4,0
	l-3.4-3.8l2.1-2.2l3.8,3.5C20.3,18.5,20.3,18.7,20.2,18.8z M19.3,13.4c-0.9,0.5-2,0.6-2.9,0.3l-6,5.9l-0.8,0.8
	c-0.2,0.2-0.6,0.2-0.8,0l-1.3-1.3c-0.2-0.2-0.2-0.6,0-0.8l6.9-6.8c-0.5-1.5,0.1-3.2,1.6-4c1.1-0.6,2.4-0.7,3.5,0.1l-3,1.6l1.7,2.6
	l2.9-1.4C21.1,11.8,20.4,12.8,19.3,13.4z"/>
</svg>
