<?xml version="1.0" encoding="utf-8"?>
<!-- Generator: Adobe Illustrator 18.1.1, SVG Export Plug-In . SVG Version: 6.00 Build 0)  -->
<svg version="1.1" id="Layer_1" xmlns="http://www.w3.org/2000/svg" xmlns:xlink="http://www.w3.org/1999/xlink" x="0px" y="0px"
	 viewBox="0 0 28 28" enable-background="new 0 0 28 28" xml:space="preserve">
<path id="Warning" d="M27.7,23.7l-12.4-21C15,2.3,14.5,2,14,2s-1,0.3-1.3,0.8l-12.4,21c-0.3,0.5-0.3,1,0,1.5C0.6,25.7,1.1,26,1.6,26
	h24.8c0.5,0,1-0.3,1.3-0.7C27.9,24.8,27.9,24.2,27.7,23.7z M15.5,22.6c0,0.2-0.2,0.4-0.4,0.4h-2.2c-0.2,0-0.4-0.2-0.4-0.4v-2.2
	c0-0.2,0.2-0.4,0.4-0.4h2.2c0.2,0,0.4,0.2,0.4,0.4V22.6z M15.5,12.4c0,0.2,0,0.5-0.1,0.7l-0.7,4.5c0,0.2-0.2,0.4-0.4,0.4h-0.6
	c-0.2,0-0.4-0.2-0.5-0.4l-0.7-4.4c0-0.2-0.1-0.6-0.1-0.8V9.5C12.5,9.2,12.7,9,13,9h2c0.3,0,0.5,0.2,0.5,0.5V12.4z"/>
</svg>
