<?xml version="1.0" encoding="utf-8"?>
<!-- Generator: Adobe Illustrator 18.1.1, SVG Export Plug-In . SVG Version: 6.00 Build 0)  -->
<svg version="1.1" id="Layer_1" xmlns="http://www.w3.org/2000/svg" xmlns:xlink="http://www.w3.org/1999/xlink" x="0px" y="0px"
	 viewBox="0 0 28 28" enable-background="new 0 0 28 28" xml:space="preserve">
<g id="Campagin">
	<path d="M25,4c-0.5,0-1,0.5-1,1v17c0,0.5,0.5,1,1,1c0.5,0,1-0.5,1-1V5C26,4.5,25.5,4,25,4z"/>
	<path d="M2,13v1c0,1.1,0.9,2,2,2v-5C2.9,11,2,11.9,2,13z"/>
	<path d="M6,10c-0.5,0-1,0.5-1,1v5c0,0.3,0.1,0.5,0.3,0.7L6.5,23c0.1,0.5,0.6,1,1.2,1h1.7c0.5,0,0.9-0.4,0.8-1l-0.9-6H10l13,5V5
		l-13,5H6z"/>
</g>
</svg>
