<?xml version="1.0" encoding="utf-8"?>
<!-- Generator: Adobe Illustrator 18.1.1, SVG Export Plug-In . SVG Version: 6.00 Build 0)  -->
<svg version="1.1" id="Layer_1" xmlns="http://www.w3.org/2000/svg" xmlns:xlink="http://www.w3.org/1999/xlink" x="0px" y="0px"
	 viewBox="0 0 28 28" enable-background="new 0 0 28 28" xml:space="preserve">
<path id="Goal" d="M24,4h-3c0-0.5,0-1.9,0-2H7c0,0.1,0,1.5,0,2H4C3.5,4,3,4.5,3,5c0,3,0,6,1.2,8c1.6,2.8,4.7,4.1,7.9,4
	c0.4,0.7,0.8,1.4,0.9,2.1V20c0,0.9-0.4,1.5-0.8,2H11v1h-1v3h8v-3h-1v-1h-1.2c-0.4-0.5-0.8-1.1-0.8-2v-1.1c0.1-0.7,0.4-1.3,0.7-1.9
	c1.3,0.4,3.3-0.2,4.5-0.7c1.4-0.6,2.3-1.4,3.4-2.8c1.1-1.4,1.5-2,1.5-8.5C25,4.5,24.5,4,24,4z M6.9,13.3C4.7,11.1,4.9,8.9,5,6h2
	c0,1.8,0,2.5,0.6,4.1c0.7,1.8,1.8,3.3,3,4.8C9,14.7,7.8,14.2,6.9,13.3C7.8,14.2,4.9,11.3,6.9,13.3z M21.1,13.3c-1,1-2.3,1.5-4,1.6
	c1.1-1.4,2.2-2.6,3.2-4.4S21,7.9,21,6h2c0,0.6,0,1.5,0,2C23,10.9,22.1,12.3,21.1,13.3z"/>
</svg>
