<?xml version="1.0" encoding="utf-8"?>
<!-- Generator: Adobe Illustrator 18.1.1, SVG Export Plug-In . SVG Version: 6.00 Build 0)  -->
<svg version="1.1" id="Layer_1" xmlns="http://www.w3.org/2000/svg" xmlns:xlink="http://www.w3.org/1999/xlink" x="0px" y="0px"
	 viewBox="0 0 28 28" enable-background="new 0 0 28 28" xml:space="preserve">
<g id="Notes">
	<polygon points="2,26 5,25 3.1,23.1 	"/>
	<path d="M25.7,3.7l-1.4-1.4c-0.4-0.4-1.1-0.4-1.5,0l-1.4,1.4c-0.4-0.4-1-0.4-1.4,0l-0.5,0.5h-1.8h-1.5l-6,6v1.4l0,0l6.4-6.4h1.8
		L18,5.8L5.8,18.1l4.2,4.2L24.3,8c0.4-0.4,0.4-1,0-1.4l1.4-1.4C26.1,4.7,26.1,4.1,25.7,3.7z"/>
</g>
</svg>
