<?xml version="1.0" encoding="utf-8"?>
<!-- Generator: Adobe Illustrator 18.1.1, SVG Export Plug-In . SVG Version: 6.00 Build 0)  -->
<svg version="1.1" id="Layer_1" xmlns="http://www.w3.org/2000/svg" xmlns:xlink="http://www.w3.org/1999/xlink" x="0px" y="0px"
	 viewBox="0 0 28 28" enable-background="new 0 0 28 28" xml:space="preserve">
<path id="Target" d="M24.5,13h-3.1C21,9.7,18.3,7,15,6.6V3.5c0-0.6-0.5-1-1-1s-1,0.5-1,1v3.1C9.7,7,7,9.7,6.6,13H3.5
	c-0.6,0-1,0.4-1,1s0.5,1,1,1h3.1c0.4,3.3,3.1,6,6.4,6.4v3c0,0.6,0.5,1,1,1s1-0.5,1-1v-3c3.3-0.4,6-3.1,6.4-6.4h3.1c0.6,0,1-0.4,1-1
	S25,13,24.5,13z M15,19.4v-2.9h-2v2.9C10.8,19,9,17.2,8.6,15h2.9v-2H8.6C9,10.8,10.8,9,13,8.6v2.9h2V8.6c2.2,0.4,4,2.2,4.4,4.4h-2.9
	v2h2.9C19,17.2,17.2,19,15,19.4z"/>
</svg>
