<svg width="188" height="32" viewBox="0 0 188 32" xmlns="http://www.w3.org/2000/svg" xmlns:xlink="http://www.w3.org/1999/xlink"><title>rockabox-187x32</title><desc>Created with Sketch.</desc><defs><path d="M.06 31.342h3.274v-8.617c0-4.42.203-7.353.607-8.807.528-1.895 1.29-3.287 2.305-4.18 1.004-.898 2.06-1.35 3.146-1.35.464 0 1.038.145 1.72.446l1.7-2.767c-1.025-.58-1.99-.865-2.888-.865-1.198 0-2.343.366-3.444 1.087-1.1.725-2.155 1.824-3.144 3.292V5.857H.06v25.485zm33.59-3.334C31.18 30.672 28.01 32 24.14 32c-3.886 0-7.066-1.328-9.53-3.992-2.462-2.66-3.69-5.773-3.69-9.34 0-3.526 1.16-6.587 3.492-9.184 2.56-2.857 5.81-4.282 9.727-4.282 3.912 0 7.134 1.422 9.704 4.265 2.328 2.592 3.5 5.657 3.5 9.2 0 3.568-1.226 6.68-3.695 9.34zm-2.546-16.574C29.15 9.414 26.82 8.41 24.127 8.41c-2.714 0-5.037 1.005-6.99 3.024-1.942 2.01-2.92 4.45-2.92 7.305 0 1.84.444 3.56 1.336 5.155.888 1.594 2.088 2.826 3.602 3.697 1.513.858 3.167 1.293 4.972 1.293 1.805 0 3.47-.435 4.983-1.293 1.51-.87 2.71-2.103 3.594-3.697.888-1.594 1.336-3.315 1.336-5.156 0-2.855-.978-5.295-2.936-7.306zm21.892-3.142c-3.087 0-5.643 1-7.684 2.996-2.043 1.997-3.057 4.425-3.057 7.276 0 1.862.46 3.605 1.4 5.248.937 1.638 2.22 2.91 3.865 3.813 1.636.902 3.463 1.36 5.498 1.36 3.725 0 6.764-1.497 9.12-4.483l2.588 1.71c-1.213 1.835-2.838 3.26-4.88 4.276C57.8 31.494 55.482 32 52.87 32c-4.002 0-7.33-1.273-9.97-3.84-2.64-2.564-3.956-5.674-3.956-9.35 0-2.468.614-4.758 1.852-6.88 1.235-2.11 2.93-3.76 5.08-4.945 2.165-1.19 4.578-1.783 7.25-1.783 1.673 0 3.29.258 4.86.775 1.554.51 2.88 1.186 3.965 2.013 1.088.828 2.01 1.88 2.776 3.156l-2.588 1.622c-2.238-2.98-5.277-4.476-9.142-4.476zm34.425 23.05h-4.588L70.078 19.868v11.474h-3.26V0h3.26v16.142L81.824 5.857h4.78l-13.923 12.16L87.42 31.34zm19.375 0v-4.38c-1.366 1.677-2.9 2.926-4.597 3.772-1.7.847-3.562 1.266-5.576 1.266-3.59 0-6.653-1.31-9.185-3.925-2.545-2.61-3.805-5.802-3.805-9.543 0-3.67 1.272-6.81 3.836-9.418 2.56-2.61 5.645-3.912 9.242-3.912 2.084 0 3.96.443 5.65 1.336 1.685.89 3.167 2.22 4.435 4.005V5.857h3.21v25.485h-3.21zm-2.682-20.002c-1.935-1.983-4.316-2.977-7.13-2.977-1.813 0-3.486.452-5.028 1.348-1.537.89-2.756 2.156-3.665 3.778-.908 1.625-1.354 3.34-1.354 5.147 0 1.797.452 3.512 1.37 5.152.91 1.634 2.136 2.91 3.68 3.824 1.543.91 3.2 1.376 4.97 1.376 1.78 0 3.474-.46 5.068-1.36 1.602-.905 2.83-2.13 3.69-3.676.86-1.548 1.292-3.29 1.292-5.224 0-2.945-.966-5.41-2.893-7.386zm30.973 16.75c-2.558 2.608-5.63 3.91-9.226 3.91-2.07 0-3.94-.442-5.61-1.34-1.676-.882-3.16-2.22-4.442-4v4.682h-3.258V0h3.258v10.24c1.36-1.69 2.887-2.948 4.577-3.787 1.695-.832 3.548-1.25 5.56-1.25 3.584 0 6.646 1.302 9.18 3.92 2.537 2.62 3.804 5.797 3.804 9.524 0 3.687-1.28 6.836-3.844 9.444zm-.837-14.715c-.906-1.632-2.138-2.913-3.68-3.826-1.548-.916-3.183-1.374-4.93-1.374-1.788 0-3.482.458-5.08 1.373-1.607.912-2.833 2.14-3.7 3.686-.853 1.545-1.29 3.284-1.29 5.223 0 2.958.97 5.42 2.897 7.402 1.93 1.988 4.3 2.98 7.122 2.98 1.812 0 3.48-.45 5.015-1.354 1.532-.893 2.755-2.153 3.662-3.777.904-1.63 1.356-3.343 1.356-5.155 0-1.813-.458-3.538-1.374-5.18zm28.823 14.633C160.61 30.672 157.44 32 153.565 32c-3.883 0-7.06-1.328-9.53-3.992-2.46-2.66-3.69-5.773-3.69-9.34 0-3.526 1.163-6.587 3.496-9.184 2.567-2.857 5.81-4.282 9.725-4.282 3.907 0 7.14 1.422 9.71 4.265 2.33 2.592 3.497 5.657 3.497 9.2 0 3.568-1.236 6.68-3.7 9.34zm-2.548-16.574c-1.944-2.02-4.272-3.025-6.973-3.025-2.704 0-5.038 1.005-6.985 3.024-1.943 2.01-2.925 4.45-2.925 7.305 0 1.84.45 3.56 1.34 5.155.888 1.594 2.09 2.826 3.598 3.697 1.51.858 3.17 1.293 4.972 1.293 1.813 0 3.476-.435 4.98-1.293 1.514-.87 2.715-2.103 3.596-3.697.89-1.594 1.335-3.315 1.335-5.156 0-2.855-.976-5.295-2.938-7.306zm26.71 19.908h-3.968l-7.713-10.7-7.665 10.7H164l9.6-13.422-8.697-12.063h3.918l6.734 9.324 6.665-9.323h3.928l-8.623 12.04 9.71 13.445z" id="a"/></defs><g fill="none" fill-rule="evenodd"><g><mask id="b"><use xlink:href="#a"/></mask><path d="M.06-.04h187.2V32H.06V-.04z" fill="#3B3C39" mask="url(#b)"/></g></g></svg>