<?xml version="1.0" encoding="utf-8"?>
<!-- Generator: Adobe Illustrator 18.1.1, SVG Export Plug-In . SVG Version: 6.00 Build 0)  -->
<svg version="1.1" id="Layer_1" xmlns="http://www.w3.org/2000/svg" xmlns:xlink="http://www.w3.org/1999/xlink" x="0px" y="0px"
	 viewBox="0 0 374 64" enable-background="new 0 0 374 64" xml:space="preserve">
<g>
	<defs>
		<path id="SVGID_1_" d="M374.5,62.7h-7.9l-15.4-21.4l-15.3,21.4H328l19.2-26.8l-17.4-24.1h7.8l13.5,18.6l13.3-18.6h7.9L355,35.8
			L374.5,62.7z M321,22.9c-3.9-4-8.5-6.1-13.9-6.1c-5.4,0-10.1,2-14,6.1c-3.9,4-5.8,8.9-5.8,14.6c0,3.7,0.9,7.1,2.7,10.3
			c1.8,3.2,4.2,5.7,7.2,7.4c3,1.7,6.3,2.6,9.9,2.6c3.6,0,7-0.9,10-2.6c3-1.7,5.4-4.2,7.2-7.4c1.8-3.2,2.7-6.6,2.7-10.3
			C326.9,31.8,325,26.9,321,22.9z M326.1,56c-4.9,5.3-11.3,8-19,8c-7.8,0-14.1-2.7-19.1-8c-4.9-5.3-7.4-11.5-7.4-18.7
			c0-7.1,2.3-13.2,7-18.4c5.1-5.7,11.6-8.6,19.4-8.6c7.8,0,14.3,2.8,19.4,8.5c4.7,5.2,7,11.3,7,18.4C333.5,44.5,331.1,50.7,326.1,56
			z M268.5,26.7c-1.8-3.3-4.3-5.8-7.4-7.7c-3.1-1.8-6.4-2.7-9.9-2.7c-3.6,0-7,0.9-10.2,2.7c-3.2,1.8-5.7,4.3-7.4,7.4
			c-1.7,3.1-2.6,6.6-2.6,10.4c0,5.9,1.9,10.8,5.8,14.8c3.9,4,8.6,6,14.2,6c3.6,0,7-0.9,10-2.7c3.1-1.8,5.5-4.3,7.3-7.6
			c1.8-3.3,2.7-6.7,2.7-10.3S270.3,30,268.5,26.7z M270.2,56.2c-5.1,5.2-11.3,7.8-18.5,7.8c-4.1,0-7.9-0.9-11.2-2.7
			c-3.4-1.8-6.3-4.4-8.9-8v9.4h-6.5V0h6.5v20.5c2.7-3.4,5.8-5.9,9.2-7.6c3.4-1.7,7.1-2.5,11.1-2.5c7.2,0,13.3,2.6,18.4,7.8
			c5.1,5.2,7.6,11.6,7.6,19C277.9,44.7,275.3,51,270.2,56.2z M208.2,22.7c-3.9-4-8.6-6-14.3-6c-3.6,0-7,0.9-10.1,2.7
			c-3.1,1.8-5.5,4.3-7.3,7.6c-1.8,3.3-2.7,6.7-2.7,10.3c0,3.6,0.9,7,2.7,10.3c1.8,3.3,4.3,5.8,7.4,7.6c3.1,1.8,6.4,2.8,9.9,2.8
			c3.6,0,6.9-0.9,10.1-2.7c3.2-1.8,5.7-4.3,7.4-7.3c1.7-3.1,2.6-6.6,2.6-10.4C214,31.6,212.1,26.6,208.2,22.7z M213.6,62.7v-8.8
			c-2.7,3.4-5.8,5.9-9.2,7.5c-3.4,1.7-7.1,2.5-11.2,2.5c-7.2,0-13.3-2.6-18.4-7.8c-5.1-5.2-7.6-11.6-7.6-19.1
			c0-7.3,2.5-13.6,7.7-18.8c5.1-5.2,11.3-7.8,18.5-7.8c4.2,0,7.9,0.9,11.3,2.7c3.4,1.8,6.3,4.4,8.9,8v-9.4h6.4v51H213.6z
			 M174.8,62.7h-9.2l-25.5-22.9v22.9h-6.5V0h6.5v32.3l23.5-20.6h9.6L145.4,36L174.8,62.7z M106,16.6c-6.2,0-11.3,2-15.4,6
			c-4.1,4-6.1,8.9-6.1,14.6c0,3.7,0.9,7.2,2.8,10.5c1.9,3.3,4.4,5.8,7.7,7.6c3.3,1.8,6.9,2.7,11,2.7c7.4,0,13.5-3,18.2-9l5.2,3.4
			c-2.4,3.7-5.7,6.5-9.8,8.6c-4.1,2-8.7,3-14,3c-8,0-14.7-2.5-19.9-7.7c-5.3-5.1-7.9-11.3-7.9-18.7c0-4.9,1.2-9.5,3.7-13.8
			c2.5-4.2,5.9-7.5,10.2-9.9c4.3-2.4,9.2-3.6,14.5-3.6c3.3,0,6.6,0.5,9.7,1.5c3.1,1,5.8,2.4,7.9,4c2.2,1.7,4,3.8,5.6,6.3l-5.2,3.2
			C119.8,19.6,113.7,16.6,106,16.6z M62.2,22.9c-3.9-4-8.6-6.1-14-6.1c-5.4,0-10.1,2-14,6.1c-3.9,4-5.8,8.9-5.8,14.6
			c0,3.7,0.9,7.1,2.7,10.3c1.8,3.2,4.2,5.7,7.2,7.4c3,1.7,6.3,2.6,9.9,2.6c3.6,0,6.9-0.9,10-2.6c3-1.7,5.4-4.2,7.2-7.4
			c1.8-3.2,2.7-6.6,2.7-10.3C68.1,31.8,66.1,26.9,62.2,22.9z M67.3,56c-4.9,5.3-11.3,8-19,8c-7.8,0-14.1-2.7-19.1-8
			c-4.9-5.3-7.4-11.5-7.4-18.7c0-7.1,2.3-13.2,7-18.4c5.1-5.7,11.6-8.6,19.5-8.6c7.8,0,14.3,2.8,19.4,8.5c4.7,5.2,7,11.3,7,18.4
			C74.7,44.5,72.2,50.7,67.3,56z M22.2,17.7c-1.4-0.6-2.5-0.9-3.4-0.9c-2.2,0-4.3,0.9-6.3,2.7c-2,1.8-3.6,4.6-4.6,8.4
			c-0.8,2.9-1.2,8.8-1.2,17.6v17.2H0v-51h6.7v7.4c2-2.9,4.1-5.1,6.3-6.6c2.2-1.4,4.5-2.2,6.9-2.2c1.8,0,3.7,0.6,5.8,1.7L22.2,17.7z"
			/>
	</defs>
	<clipPath id="SVGID_2_">
		<use xlink:href="#SVGID_1_"  overflow="visible"/>
	</clipPath>
	<g clip-path="url(#SVGID_2_)">
		<rect x="-255.9" y="-128.7" fill="#414141" width="1165.9" height="517.9"/>
	</g>
</g>
</svg>
