<?xml version="1.0" encoding="utf-8"?>
<!-- Generator: Adobe Illustrator 18.1.1, SVG Export Plug-In . SVG Version: 6.00 Build 0)  -->
<svg version="1.1" id="Layer_1" xmlns="http://www.w3.org/2000/svg" xmlns:xlink="http://www.w3.org/1999/xlink" x="0px" y="0px"
	 viewBox="0 0 30 28" enable-background="new 0 0 30 28" xml:space="preserve">
<g id="Category">
	<path d="M29.5,16.9l-8.9,8.9c-0.2,0.2-0.5,0.1-0.7-0.1l-1.6-1.6l7.2-7.2c0.5-0.5,0.5-0.9,0-1.4L12.1,2.1h3c0.3,0,0.9,0.1,1.1,0.2
		c0.2,0.1,0.4,0.3,0.6,0.5l12.7,12.7C29.9,15.9,29.9,16.5,29.5,16.9z"/>
	<path d="M10.5,2.5c-0.2-0.2-0.6-0.4-0.9-0.4H0.7c-0.3,0-0.5,0.2-0.5,0.5v8.9c0,0.3,0.2,0.7,0.4,0.9L14,25.7c0.2,0.2,0.5,0.2,0.7,0
		l9.2-9.2c0.2-0.2,0.2-0.5,0-0.7L10.5,2.5z M6.6,8.5c-0.8,0.8-2,0.8-2.8,0C3,7.7,3,6.5,3.8,5.7c0.8-0.8,2-0.8,2.8,0
		C7.4,6.5,7.4,7.7,6.6,8.5z"/>
</g>
</svg>
