<svg xmlns="http://www.w3.org/2000/svg" viewBox="0 0 28 28" enable-background="new 0 0 28 28"><g><path d="M7.1 15.2l-1-3.2H4.9l-1 3.2-1-3.2H1.5l1.7 5h1.3l1-2.9.9 2.9h1.3l1.8-5H8zM14.6 12h-1.2l-1 3.2-1-3.2H10l1.7 5H13l1-2.9 1 2.9h1.3l1.7-5h-1.4l-1 3.2zM23.1 12h-1.2l-1 3.2L20 12h-1.5l1.8 5h1.3l.9-2.9 1 2.9h1.3l1.7-5h-1.4l-1 3.2zM4.2 8.9h2.6c-.2.3-.2.7-.3 1.1h2.1c.1-.4.2-.8.3-1.1H13V10h2.1V8.9h4.1c.1.3.2.7.3 1.1h2.1c-.1-.4-.1-.8-.2-1.1H24c.2.4.3.7.4 1.1H27C25.5 4.2 20.3 0 14 0S2.5 4.2 1 10h2.7c.1-.4.3-.8.5-1.1zm18.4-2.1h-2.1c-.6-1.4-1.4-2.5-2.2-3.3 1.7.7 3.2 1.8 4.3 3.3zm-7.5-3.5c.6.4 2 1.4 3.2 3.5h-3.2V3.3zm-2.2 0v3.5H9.8c1.1-2.1 2.5-3.1 3.1-3.5zm-3.2.2c-.8.8-1.6 1.9-2.2 3.3H5.4C6.6 5.3 8 4.2 9.7 3.5zM23.9 19.2h-2.6l.3-1.2h-2.1l-.3 1.2h-4.1V18H13v1.2H8.9L8.6 18H6.5l.3 1.2H4.2c-.2-.4-.3-.8-.5-1.2H1c1.5 5.7 6.7 10 13 10s11.5-4.3 13-10h-2.7c-.1.4-.3.8-.4 1.2zM5.5 21.3h2c.6 1.3 1.4 2.4 2.1 3.2-1.6-.7-3-1.8-4.1-3.2zm7.4 3.4c-.6-.4-2-1.4-3.2-3.4h3.2v3.4zm2.2 0v-3.4h3.2c-1.2 2-2.6 3.1-3.2 3.4zm3.3-.2c.7-.8 1.5-1.9 2.1-3.2h2.1c-1.2 1.4-2.6 2.5-4.2 3.2z"/></g></svg>