<?xml version="1.0" encoding="utf-8"?>
<!-- Generator: Adobe Illustrator 18.1.1, SVG Export Plug-In . SVG Version: 6.00 Build 0)  -->
<svg version="1.1" id="Layer_1" xmlns="http://www.w3.org/2000/svg" xmlns:xlink="http://www.w3.org/1999/xlink" x="0px" y="0px"
	 viewBox="0 0 28 28" enable-background="new 0 0 28 28" xml:space="preserve">
<g id="Domains">
	<polygon points="7.1,15.2 6.1,12 4.9,12 3.9,15.2 2.9,12 1.5,12 3.2,17 4.5,17 5.5,14.1 6.4,17 7.7,17 9.5,12 8,12 	"/>
	<polygon points="14.6,12 13.4,12 12.4,15.2 11.4,12 10,12 11.7,17 13,17 14,14.1 15,17 16.3,17 18,12 16.6,12 15.6,15.2 	"/>
	<polygon points="23.1,12 21.9,12 20.9,15.2 20,12 18.5,12 20.3,17 21.6,17 22.5,14.1 23.5,17 24.8,17 26.5,12 25.1,12 24.1,15.2 	
		"/>
	<path d="M4.2,8.9h2.6C6.6,9.2,6.6,9.6,6.5,10h2.1c0.1-0.4,0.2-0.8,0.3-1.1h4.1V10h2.1V8.9h4.1c0.1,0.3,0.2,0.7,0.3,1.1h2.1
		c-0.1-0.4-0.1-0.8-0.2-1.1h2.6c0.2,0.4,0.3,0.7,0.4,1.1H27C25.5,4.2,20.3,0,14,0S2.5,4.2,1,10h2.7C3.8,9.6,4,9.2,4.2,8.9z
		 M22.6,6.8h-2.1c-0.6-1.4-1.4-2.5-2.2-3.3C20,4.2,21.5,5.3,22.6,6.8z M15.1,3.3c0.6,0.4,2,1.4,3.2,3.5h-3.2V3.3z M12.9,3.3v3.5H9.8
		C10.9,4.7,12.3,3.7,12.9,3.3z M9.7,3.5C8.9,4.3,8.1,5.4,7.5,6.8H5.4C6.6,5.3,8,4.2,9.7,3.5z"/>
	<path d="M23.9,19.2h-2.6c0.1-0.4,0.2-0.8,0.3-1.2h-2.1c-0.1,0.4-0.2,0.8-0.3,1.2h-4.1V18h-2.1v1.2H8.9c-0.1-0.4-0.2-0.8-0.3-1.2
		H6.5c0.1,0.4,0.2,0.8,0.3,1.2H4.2C4,18.8,3.9,18.4,3.7,18H1c1.5,5.7,6.7,10,13,10s11.5-4.3,13-10h-2.7C24.2,18.4,24,18.8,23.9,19.2
		z M5.5,21.3h2c0.6,1.3,1.4,2.4,2.1,3.2C8,23.8,6.6,22.7,5.5,21.3z M12.9,24.7c-0.6-0.4-2-1.4-3.2-3.4h3.2V24.7z M15.1,24.7v-3.4
		h3.2C17.1,23.3,15.7,24.4,15.1,24.7z M18.4,24.5c0.7-0.8,1.5-1.9,2.1-3.2h2.1C21.4,22.7,20,23.8,18.4,24.5z"/>
</g>
</svg>
