<?xml version="1.0" encoding="utf-8"?>
<!-- Generator: Adobe Illustrator 18.1.1, SVG Export Plug-In . SVG Version: 6.00 Build 0)  -->
<svg version="1.1" id="Layer_1" xmlns="http://www.w3.org/2000/svg" xmlns:xlink="http://www.w3.org/1999/xlink" x="0px" y="0px"
	 viewBox="0 0 28 28" enable-background="new 0 0 28 28" xml:space="preserve">
<g id="OS_Browser">
	<path d="M23.5,2h-19C3.1,2,2,3.1,2,4.5v19C2,24.9,3.1,26,4.5,26h19c1.4,0,2.5-1.1,2.5-2.5v-19C26,3.1,24.9,2,23.5,2z M9,4
		c0.6,0,1,0.4,1,1S9.6,6,9,6S8,5.6,8,5S8.4,4,9,4z M5,4c0.6,0,1,0.4,1,1S5.6,6,5,6S4,5.6,4,5S4.4,4,5,4z M24,23H4V8h20V23z"/>
	<path d="M11.8,19.9c0.1,0.1,0.3,0.1,0.4,0l3-3l1.7,1.7c0.1,0.1,0.2,0.1,0.2-0.1l1-6.3c0-0.1-0.1-0.2-0.2-0.2l-6.3,1
		c-0.1,0-0.2,0.1-0.1,0.2l1.6,1.6l-3,3c-0.1,0.1-0.1,0.3,0,0.4L11.8,19.9z"/>
</g>
</svg>
