<?xml version="1.0" encoding="utf-8"?>
<!-- Generator: Adobe Illustrator 18.1.1, SVG Export Plug-In . SVG Version: 6.00 Build 0)  -->
<svg version="1.1" id="Layer_1" xmlns="http://www.w3.org/2000/svg" xmlns:xlink="http://www.w3.org/1999/xlink" x="0px" y="0px"
	 viewBox="0 0 28 28" enable-background="new 0 0 28 28" xml:space="preserve">
<g id="SSP">
	<path d="M21.5,16.5c-0.7,0-1.4,0.2-2,0.6l-2-2c0.3-0.5,0.5-1,0.5-1.6c0-0.4-0.1-0.8-0.3-1.2l3.2-2.3c0.4,0.3,1,0.6,1.6,0.6
		c1.4,0,2.5-1.1,2.5-2.5c0-1.4-1.1-2.5-2.5-2.5S20,6.6,20,8c0,0.3,0.1,0.6,0.2,0.9L17,11.3c-0.5-0.5-1.2-0.8-2-0.8
		c-0.1,0-0.1,0-0.2,0l-1-3.4C14.5,6.7,15,5.9,15,5c0-1.4-1.1-2.5-2.5-2.5S10,3.6,10,5c0,1.4,1.1,2.5,2.5,2.5c0,0,0,0,0.1,0l1,3.4
		c-0.5,0.3-0.9,0.7-1.2,1.2L8,11c0-1.4-1.1-2.5-2.5-2.5C4.1,8.5,3,9.6,3,11c0,1.4,1.1,2.5,2.5,2.5c0.9,0,1.7-0.5,2.2-1.3l4.4,1.1
		c0,0,0,0.1,0,0.1c0,0.6,0.2,1.1,0.5,1.6l-3.1,3.1c-0.7-0.5-1.5-0.8-2.3-0.8c-2.2,0-4,1.8-4,4c0,2.2,1.8,4,4,4s4-1.8,4-4
		c0-0.9-0.3-1.7-0.8-2.3l3.1-3.1c0.5,0.3,1,0.5,1.6,0.5s1.1-0.2,1.6-0.5l2,2c-0.4,0.6-0.6,1.2-0.6,2c0,1.9,1.6,3.5,3.5,3.5
		S25,21.9,25,20S23.4,16.5,21.5,16.5z"/>
</g>
</svg>
