<?xml version="1.0" encoding="utf-8"?>
<!-- Generator: Adobe Illustrator 18.1.1, SVG Export Plug-In . SVG Version: 6.00 Build 0)  -->
<svg version="1.1" id="Layer_1" xmlns="http://www.w3.org/2000/svg" xmlns:xlink="http://www.w3.org/1999/xlink" x="0px" y="0px"
	 viewBox="0 0 28 28" enable-background="new 0 0 28 28" xml:space="preserve">
<g id="Device">
	<g id="body_1_">
		<path d="M18.5,2h-9C8.1,2,7,3.1,7,4.5v19C7,24.9,8.1,26,9.5,26h9c1.4,0,2.5-1.1,2.5-2.5v-19C21,3.1,19.9,2,18.5,2z M14,25
			c-0.8,0-1.5-0.7-1.5-1.5S13.2,22,14,22c0.8,0,1.5,0.7,1.5,1.5S14.8,25,14,25z M9,21V6h10v15H9z"/>
	</g>
</g>
</svg>
