<?xml version="1.0" encoding="utf-8"?>
<!-- Generator: Adobe Illustrator 18.1.1, SVG Export Plug-In . SVG Version: 6.00 Build 0)  -->
<svg version="1.1" id="Layer_1" xmlns="http://www.w3.org/2000/svg" xmlns:xlink="http://www.w3.org/1999/xlink" x="0px" y="0px"
	 viewBox="0 0 28 28" enable-background="new 0 0 28 28" xml:space="preserve">
<path id="Freq_Cap" d="M7.3,12.6c0.5,0,0.9-0.2,1.3-0.4l3.7,2.3c0,0.1,0,0.1,0,0.2c0,1.3,1,2.4,2.3,2.4c1.3,0,2.3-1.1,2.3-2.4
	c0-0.3-0.1-0.6-0.2-0.8L21,9.1l2.5,2.2L25.1,3l-7.8,2.8l2.2,2l-4.2,4.7c-0.2-0.1-0.4-0.1-0.7-0.1c-0.5,0-0.9,0.1-1.2,0.4l-3.8-2.3
	c0,0,0-0.1,0-0.1c0-1.3-1-2.4-2.3-2.4C6,7.9,5,8.9,5,10.2c0,0.2,0,0.4,0.1,0.6L2,13.8v2.8l4.4-4.2C6.7,12.5,7,12.6,7.3,12.6z
	 M7.3,21.1c0.6,0,1.2-0.3,1.6-0.7l6.6,2.5c0.1,1.2,1.1,2.1,2.3,2.1c1.3,0,2.3-1.1,2.3-2.4c0-0.3-0.1-0.6-0.2-0.9l3.9-4.5l1.5,1.2
	l0.7-5.7l-5.2,2.2l1.3,1.1l-3.8,4.4c-0.2-0.1-0.4-0.1-0.6-0.1c-0.6,0-1.2,0.2-1.6,0.6l-6.7-2.5c-0.1-1.2-1.1-2-2.3-2
	C6,16.3,5,17.4,5,18.7c0,0.1,0,0.1,0,0.2l-3,1.9v2.4l4-2.5C6.4,20.9,6.8,21.1,7.3,21.1z"/>
</svg>
