<?xml version="1.0" encoding="utf-8"?>
<!-- Generator: Adobe Illustrator 18.1.1, SVG Export Plug-In . SVG Version: 6.00 Build 0)  -->
<svg version="1.1" id="Layer_1" xmlns="http://www.w3.org/2000/svg" xmlns:xlink="http://www.w3.org/1999/xlink" x="0px" y="0px"
	 viewBox="0 0 28 28" enable-background="new 0 0 28 28" xml:space="preserve">
<path id="Geo" d="M14,2c-5,0-9,4-9,9c0,1.6,0.4,3.1,1.2,4.5c2.6,5.6,7.5,10.4,7.5,10.4c0.1,0.2,0.2,0.2,0.3,0.2s0.2-0.1,0.3-0.2
	c0,0,4.9-4.8,7.5-10.4c0.8-1.3,1.2-2.8,1.2-4.5C23,6,19,2,14,2z M14,14c-1.7,0-3-1.3-3-3c0-1.7,1.3-3,3-3s3,1.3,3,3
	C17,12.6,15.7,14,14,14z"/>
</svg>
