<svg xmlns="http://www.w3.org/2000/svg" xmlns:xlink="http://www.w3.org/1999/xlink" viewBox="430 271.5 100 17" enable-background="new 430 271.5 100 17"><path fill="#000000" d="M530 288.2h-2.1l-4.1-5.7-4.1 5.7h-2.1l5.1-7.1-4.6-6.4h2.1l3.6 4.9 3.6-4.9h2.1l-4.6 6.4 5.1 7.1zm-14.3-10.6c-1-1.1-2.3-1.6-3.7-1.6s-2.7.5-3.7 1.6-1.5 2.4-1.5 3.9c0 1 .2 1.9.7 2.7.5.9 1.1 1.5 1.9 2s1.7.7 2.6.7 1.9-.2 2.7-.7 1.4-1.1 1.9-2c.5-.9.7-1.8.7-2.7 0-1.6-.5-2.9-1.6-3.9zm1.4 8.8c-1.3 1.4-3 2.1-5.1 2.1-2.1 0-3.8-.7-5.1-2.1-1.3-1.4-2-3.1-2-5s.6-3.5 1.9-4.9c1.4-1.5 3.1-2.3 5.2-2.3s3.8.7 5.2 2.3c1.3 1.4 1.9 3 1.9 4.9-.1 1.9-.7 3.6-2 5zm-15.4-7.8c-.5-.9-1.1-1.5-2-2-.8-.5-1.7-.7-2.6-.7-1 0-1.9.2-2.7.7s-1.5 1.1-2 2c-.5.8-.7 1.8-.7 2.8 0 1.6.5 2.9 1.5 3.9 1 1.1 2.3 1.6 3.8 1.6 1 0 1.9-.2 2.7-.7.8-.5 1.5-1.1 1.9-2 .5-.9.7-1.8.7-2.7.1-1.1-.1-2-.6-2.9zm.5 7.8c-1.4 1.4-3 2.1-4.9 2.1-1.1 0-2.1-.2-3-.7-.9-.5-1.7-1.2-2.4-2.1v2.5h-1.7v-16.7h1.7v5.4c.7-.9 1.5-1.6 2.5-2 .9-.5 1.9-.7 3-.7 1.9 0 3.6.7 4.9 2.1s2 3.1 2 5c-.1 2.1-.8 3.7-2.1 5.1zm-16.6-8.9c-1-1.1-2.3-1.6-3.8-1.6-1 0-1.9.2-2.7.7-.8.5-1.5 1.1-1.9 2s-.7 1.8-.7 2.7.2 1.9.7 2.7 1.1 1.5 2 2c.8.5 1.7.7 2.6.7 1 0 1.8-.2 2.7-.7.9-.5 1.5-1.1 2-1.9.5-.8.7-1.8.7-2.8-.1-1.4-.6-2.7-1.6-3.8zm1.5 10.7v-2.3c-.7.9-1.5 1.6-2.5 2-.9.5-1.9.7-3 .7-1.9 0-3.6-.7-4.9-2.1s-2-3.1-2-5.1c0-1.9.7-3.6 2.1-5 1.4-1.4 3-2.1 4.9-2.1 1.1 0 2.1.2 3 .7s1.7 1.2 2.4 2.1v-2.5h1.7v13.5h-1.7v.1zm-10.4 0h-2.5l-6.8-6.1v6.1h-1.7v-16.7h1.7v8.6l6.3-5.5h2.6l-7.5 6.5 7.9 7.1zm-18.4-12.3c-1.7 0-3 .5-4.1 1.6-1.1 1.1-1.6 2.4-1.6 3.9 0 1 .2 1.9.7 2.8s1.2 1.5 2.1 2c.9.5 1.8.7 2.9.7 2 0 3.6-.8 4.9-2.4l1.4.9c-.6 1-1.5 1.7-2.6 2.3-1.1.5-2.3.8-3.7.8-2.1 0-3.9-.7-5.3-2-1.4-1.4-2.1-3-2.1-5 0-1.3.3-2.5 1-3.7.7-1.1 1.6-2 2.7-2.6 1.1-.6 2.5-1 3.9-1 .9 0 1.8.1 2.6.4.8.3 1.5.6 2.1 1.1.6.5 1.1 1 1.5 1.7l-1.4.9c-1.3-1.6-2.9-2.4-5-2.4zm-11.7 1.7c-1-1.1-2.3-1.6-3.7-1.6-1.4 0-2.7.5-3.7 1.6s-1.5 2.4-1.5 3.9c0 1 .2 1.9.7 2.7s1.1 1.5 1.9 2c.8.5 1.7.7 2.6.7 1 0 1.8-.2 2.7-.7.8-.5 1.4-1.1 1.9-2s.7-1.8.7-2.7c0-1.6-.5-2.9-1.6-3.9zm1.3 8.8c-1.3 1.4-3 2.1-5.1 2.1-2.1 0-3.8-.7-5.1-2.1-1.3-1.4-2-3.1-2-5s.6-3.5 1.9-4.9c1.4-1.5 3.1-2.3 5.2-2.3s3.8.7 5.2 2.3c1.3 1.4 1.9 3 1.9 4.9 0 1.9-.6 3.6-2 5zm-12-10.2c-.4-.2-.7-.2-.9-.2-.6 0-1.1.2-1.7.7s-1 1.2-1.2 2.2c-.2.8-.3 2.3-.3 4.7v4.6H430v-13.5h1.8v2c.5-.8 1.1-1.4 1.7-1.8.6-.4 1.2-.6 1.8-.6.5 0 1 .2 1.5.5l-.9 1.4z"/><defs><path fill="#000000" id="a" d="M530 288.2h-2.1l-4.1-5.7-4.1 5.7h-2.1l5.1-7.1-4.6-6.4h2.1l3.6 4.9 3.6-4.9h2.1l-4.6 6.4 5.1 7.1zm-14.3-10.6c-1-1.1-2.3-1.6-3.7-1.6s-2.7.5-3.7 1.6-1.5 2.4-1.5 3.9c0 1 .2 1.9.7 2.7.5.9 1.1 1.5 1.9 2s1.7.7 2.6.7 1.9-.2 2.7-.7 1.4-1.1 1.9-2c.5-.9.7-1.8.7-2.7 0-1.6-.5-2.9-1.6-3.9zm1.4 8.8c-1.3 1.4-3 2.1-5.1 2.1-2.1 0-3.8-.7-5.1-2.1-1.3-1.4-2-3.1-2-5s.6-3.5 1.9-4.9c1.4-1.5 3.1-2.3 5.2-2.3s3.8.7 5.2 2.3c1.3 1.4 1.9 3 1.9 4.9-.1 1.9-.7 3.6-2 5zm-15.4-7.8c-.5-.9-1.1-1.5-2-2-.8-.5-1.7-.7-2.6-.7-1 0-1.9.2-2.7.7s-1.5 1.1-2 2c-.5.8-.7 1.8-.7 2.8 0 1.6.5 2.9 1.5 3.9 1 1.1 2.3 1.6 3.8 1.6 1 0 1.9-.2 2.7-.7.8-.5 1.5-1.1 1.9-2 .5-.9.7-1.8.7-2.7.1-1.1-.1-2-.6-2.9zm.5 7.8c-1.4 1.4-3 2.1-4.9 2.1-1.1 0-2.1-.2-3-.7-.9-.5-1.7-1.2-2.4-2.1v2.5h-1.7v-16.7h1.7v5.4c.7-.9 1.5-1.6 2.5-2 .9-.5 1.9-.7 3-.7 1.9 0 3.6.7 4.9 2.1s2 3.1 2 5c-.1 2.1-.8 3.7-2.1 5.1zm-16.6-8.9c-1-1.1-2.3-1.6-3.8-1.6-1 0-1.9.2-2.7.7-.8.5-1.5 1.1-1.9 2s-.7 1.8-.7 2.7.2 1.9.7 2.7 1.1 1.5 2 2c.8.5 1.7.7 2.6.7 1 0 1.8-.2 2.7-.7.9-.5 1.5-1.1 2-1.9.5-.8.7-1.8.7-2.8-.1-1.4-.6-2.7-1.6-3.8zm1.5 10.7v-2.3c-.7.9-1.5 1.6-2.5 2-.9.5-1.9.7-3 .7-1.9 0-3.6-.7-4.9-2.1s-2-3.1-2-5.1c0-1.9.7-3.6 2.1-5 1.4-1.4 3-2.1 4.9-2.1 1.1 0 2.1.2 3 .7s1.7 1.2 2.4 2.1v-2.5h1.7v13.5h-1.7v.1zm-10.4 0h-2.5l-6.8-6.1v6.1h-1.7v-16.7h1.7v8.6l6.3-5.5h2.6l-7.5 6.5 7.9 7.1zm-18.4-12.3c-1.7 0-3 .5-4.1 1.6-1.1 1.1-1.6 2.4-1.6 3.9 0 1 .2 1.9.7 2.8s1.2 1.5 2.1 2c.9.5 1.8.7 2.9.7 2 0 3.6-.8 4.9-2.4l1.4.9c-.6 1-1.5 1.7-2.6 2.3-1.1.5-2.3.8-3.7.8-2.1 0-3.9-.7-5.3-2-1.4-1.4-2.1-3-2.1-5 0-1.3.3-2.5 1-3.7.7-1.1 1.6-2 2.7-2.6 1.1-.6 2.5-1 3.9-1 .9 0 1.8.1 2.6.4.8.3 1.5.6 2.1 1.1.6.5 1.1 1 1.5 1.7l-1.4.9c-1.3-1.6-2.9-2.4-5-2.4zm-11.7 1.7c-1-1.1-2.3-1.6-3.7-1.6-1.4 0-2.7.5-3.7 1.6s-1.5 2.4-1.5 3.9c0 1 .2 1.9.7 2.7s1.1 1.5 1.9 2c.8.5 1.7.7 2.6.7 1 0 1.8-.2 2.7-.7.8-.5 1.4-1.1 1.9-2s.7-1.8.7-2.7c0-1.6-.5-2.9-1.6-3.9zm1.3 8.8c-1.3 1.4-3 2.1-5.1 2.1-2.1 0-3.8-.7-5.1-2.1-1.3-1.4-2-3.1-2-5s.6-3.5 1.9-4.9c1.4-1.5 3.1-2.3 5.2-2.3s3.8.7 5.2 2.3c1.3 1.4 1.9 3 1.9 4.9 0 1.9-.6 3.6-2 5zm-12-10.2c-.4-.2-.7-.2-.9-.2-.6 0-1.1.2-1.7.7s-1 1.2-1.2 2.2c-.2.8-.3 2.3-.3 4.7v4.6H430v-13.5h1.8v2c.5-.8 1.1-1.4 1.7-1.8.6-.4 1.2-.6 1.8-.6.5 0 1 .2 1.5.5l-.9 1.4z"/></defs><clipPath id="b"><use xlink:href="#a" overflow="visible"/></clipPath><path fill="#000000" d="M361.7 237.3h311.4v137.5H361.7z" clip-path="url(#b)"/></svg>
