<svg xmlns="http://www.w3.org/2000/svg" viewBox="0 0 16 16" enable-background="new 0 0 16 16"><path fill="#000000" d="M8-.2C4.8-.2 1.9 1.7.6 4.6-.7 7.5-.2 11.1 2 13.5c2.2 2.4 5.6 3.3 8.7 2.2 3-1 5.2-3.8 5.5-6.9.4-4.7-3.5-9-8.2-9zM5 4.3c.1-.1.2-.1.3-.2.1-.3-.1-.5-.3-.7.2-.7 1.4.4.8 1-.1.1-1 0-.8-.1zm5.8 8.2c0 .3-.2.9-.6.9-.2 0-.2-.4-.2-.5.1-.6.4-.7.7-1.2.3.1.1.5.1.8zM15 8.3c-.2 0-.1-.4-.2-.6-.3.1-.8.6-1 .9-.1.2.1.9-.3.9-.1 0-.2-.5-.2-.6-.1-.3-.1-.6-.2-.8-.1-.3-.3-.1-.5-.1-.3-.1-.2-.4-.6-.4-.4 0-.5.2-.4.6-.3.3-.8.9-1.3.9-.3 0-.4-1.1-.8-1.3-.2-.3-.5-.1-.3.1s.2.5.4.7c.4.4.8.8 1.3.4-.1.6-.5 1-.9 1.4-.2.3-.4.5-.3.9.1.3.3.7 0 .9-.2.2-.5.3-.5.5 0 .1.1.2 0 .3-.1.2-.2.3-.3.4-.2.3-.5.9-.8 1-.2.1-.6.2-.7 0-.4-.4-.2-1.5-.4-2-.1-.3.1-.5.1-.8 0-.2-.2-.4-.3-.6-.1-.3-.1-.4-.1-.7 0-.3-.2-.1-.4-.2-.1-.1-.1-.3-.4-.1-.2.1-.8.2-1 .2-.3-.1-.7-.8-.8-1.1-.1-.3.1-.5.1-.8-.1-.2 0-.5.1-.7.2-.3.5-.8.8-1 .2-.1.5 0 .8-.1.2-.1.6-.1.8-.1.3.2 0 .5.2.6.2.1.3.2.5.3.2.1.3-.2.4-.3h.6c.3.1 1-.2.7-.7-.1-.1-.4-.2-.6-.3-.2-.1-.1-.4-.4-.4-.2 0 .1.3 0 .4-.1.2-.4-.3-.4-.3 0-.1-.5-.8-.7-.6-.1 0 .8 1 .1.8 0-.3-.3-.3-.4-.5-.2-.2-.3-.1-.6.1-.2.2-.5.5-.8.6-.5.3-.4-.3-.4-.7 0-.2.4-.1.5-.2.4-.2 0-.3-.1-.5.1-.2.8-.4 1-.4.3-.1.7-.4 1.2-.1.1 0 .7-.4.3-.5-.6-.3-.6.1-1 .2 0-.4-1-.5-.7-1 .3-.5.6-.5 1.5-.6.7 0 1 0 1.1.1s.3.6-.1.6c.1.6.7 0 .9-.1.4-.2 1.2-.1 1.3-.2.1-.1-.1-.3 0-.5.1-.1.3-.1.3.1.4.1.6-.2 1 .1 1.3.9 2.3 2.1 2.8 4.1.3.9.4 1.9.1 1.8z"/></svg>
