<svg xmlns="http://www.w3.org/2000/svg" viewBox="0 0 16 16" enable-background="new 0 0 16 16"><g><path fill="#000000" d="M10.6 8.8c.5.6.9 1.3 1.2 1.8 1.8 3.5-3.1.1-5.2-2.1-2.3-2.5-4.9-7-1.2-4.6.6.4 1.3.9 2 1.5l1-.6c-.8-.7-1.6-1.3-2.3-1.7-3-1.9-3.7-1-4.2.6-1.2 3.4.7 7.9 5.2 9.7 2.7 1.1 6.6.9 6.4-1.3-.1-1.2-1.2-2.9-2.3-4.2l-.6.9zM0 16h2c.2-.6.8-1 1.5-1s1.3.4 1.5 1h2l-3.5-3.5L0 16zM12 0v1c1.7 0 3 1.3 3 3h1c0-2.2-1.8-4-4-4zM12 2v1c.3.2.8.7 1 1h1c-.3-.9-1.2-1.7-2-2zM7 7.6L8.4 9l2.5-3h.2c.6 0 1-.4 1-1s-.4-1-1-1-1 .4-1 1v.1L7 7.6z"/></g></svg>
