<svg xmlns="http://www.w3.org/2000/svg" viewBox="0 0 16 16" enable-background="new 0 0 16 16"><path fill="#000000" d="M15.9 9c.1-.3.1-.6.1-1s0-.7-.1-1l-2.1-.5c-.1-.5-.3-1-.6-1.5l1.1-1.9c-.4-.5-.9-1-1.5-1.5L11 2.8c-.5-.3-.9-.5-1.5-.6L9 .1C8.7 0 8.4 0 8 0s-.7 0-1 .1l-.6 2.1c-.5.1-1 .3-1.4.6L3.1 1.7c-.5.4-1 .9-1.5 1.5L2.8 5c-.3.4-.5.9-.6 1.4L.1 7c-.1.3-.1.6-.1 1s0 .7.1 1l2.1.5c.1.5.3 1 .6 1.5l-1.1 1.9c.4.5.9 1 1.5 1.5L5 13.2c.5.3.9.5 1.5.6l.5 2.1c.3.1.6.1 1 .1s.7 0 1-.1l.5-2.1c.5-.1 1-.3 1.5-.6l1.9 1.1c.5-.4 1-.9 1.5-1.5L13.2 11c.3-.5.5-.9.6-1.4l2.1-.6zM8 11c-1.7 0-3-1.3-3-3s1.3-3 3-3 3 1.3 3 3-1.3 3-3 3z"/></svg>
