<svg xmlns="http://www.w3.org/2000/svg" xmlns:xlink="http://www.w3.org/1999/xlink" viewBox="392.5 265 175 30" enable-background="new 392.5 265 175 30"><path fill="#000000" d="M567.5 294.2h-3.7l-7.2-10-7.2 10h-3.6l9-12.6-8.2-11.3h3.7l6.3 8.7 6.3-8.7h3.7l-8.1 11.2 9 12.7zm-24.9-18.5c-1.8-1.9-4-2.8-6.6-2.8-2.5 0-4.7.9-6.6 2.8-1.8 1.9-2.7 4.2-2.7 6.8 0 1.7.5 3.4 1.2 4.9.8 1.5 2 2.6 3.4 3.5s3 1.2 4.7 1.2c1.7 0 3.3-.4 4.7-1.2s2.5-2 3.4-3.5c.8-1.5 1.2-3.1 1.2-4.9.1-2.7-.9-4.9-2.7-6.8zm2.4 15.5c-2.3 2.5-5.2 3.8-8.9 3.8s-6.7-1.2-8.9-3.8c-2.3-2.5-3.5-5.4-3.5-8.7s1.1-6.2 3.3-8.6c2.4-2.7 5.4-4 9.1-4s6.7 1.3 9.1 4c2.2 2.4 3.3 5.3 3.3 8.6-.1 3.2-1.2 6.1-3.5 8.7zm-27-13.6c-.8-1.5-2-2.7-3.5-3.6-1.4-.8-3-1.3-4.6-1.3-1.7 0-3.3.5-4.8 1.3s-2.6 2-3.5 3.5c-.8 1.4-1.2 3.1-1.2 4.9 0 2.8.9 5.1 2.7 6.9 1.8 1.9 4 2.8 6.7 2.8 1.7 0 3.3-.5 4.7-1.3s2.6-2.1 3.5-3.6c.8-1.5 1.3-3.1 1.3-4.9 0-1.8-.4-3.2-1.3-4.7zm.9 13.6c-2.4 2.4-5.2 3.7-8.6 3.7-2 0-3.7-.4-5.2-1.2s-3-2.1-4.1-3.8v4.4h-3.1V265h3.1v9.6c1.3-1.6 2.7-2.7 4.3-3.6 1.6-.8 3.3-1.2 5.2-1.2 3.4 0 6.2 1.2 8.6 3.7 2.3 2.4 3.6 5.4 3.6 8.9-.3 3.4-1.5 6.4-3.8 8.8zm-29-15.6c-1.8-1.9-4-2.8-6.7-2.8-1.7 0-3.3.5-4.7 1.2-1.4.8-2.6 2.1-3.5 3.6s-1.3 3.1-1.3 4.8.5 3.3 1.3 4.9c.8 1.5 2 2.7 3.5 3.6 1.4.8 3 1.3 4.7 1.3s3.3-.5 4.8-1.3 2.6-2 3.5-3.5c.8-1.4 1.2-3.1 1.2-4.9-.1-2.8-1-5-2.8-6.9zm2.5 18.6v-4c-1.3 1.6-2.7 2.7-4.3 3.6-1.6.8-3.4 1.2-5.2 1.2-3.4 0-6.3-1.2-8.6-3.7-2.3-2.4-3.6-5.4-3.6-8.9s1.2-6.4 3.6-8.8c2.4-2.4 5.2-3.7 8.6-3.7 2 0 3.7.4 5.3 1.2 1.6.8 3 2.1 4.1 3.8v-4.5h3v23.8h-2.9zm-18.2 0h-4.3L458 283.6v10.8h-3.1V265h3.1v15.1l11-9.6h4.5l-12.9 11.3 13.6 12.4zm-32.1-21.4c-2.9 0-5.2.9-7.2 2.8-1.9 1.9-2.9 4.1-2.9 6.8 0 1.8.5 3.4 1.3 4.9.8 1.5 2.1 2.7 3.7 3.6s3.3 1.3 5.2 1.3c3.5 0 6.4-1.4 8.5-4.2l2.4 1.6c-1.1 1.7-2.6 3.1-4.6 4-1.9.9-4.1 1.4-6.6 1.4-3.7 0-6.8-1.2-9.4-3.6-2.4-2.4-3.7-5.3-3.7-8.7 0-2.3.6-4.5 1.8-6.5 1.2-2.1 2.8-3.6 4.9-4.7 2.1-1.1 4.3-1.7 6.7-1.7 1.6 0 3.1.3 4.6.8 1.5.5 2.7 1.1 3.7 1.9 1 .8 1.9 1.8 2.6 3l-2.4 1.5c-2.1-2.8-5-4.2-8.6-4.2zm-20.4 2.9c-1.9-1.9-4-2.8-6.6-2.8-2.5 0-4.7.9-6.6 2.8-1.8 1.9-2.7 4.2-2.7 6.8 0 1.7.4 3.4 1.2 4.9s2 2.6 3.4 3.5c1.4.8 3 1.2 4.7 1.2s3.3-.4 4.7-1.2c1.4-.8 2.5-2 3.4-3.5.8-1.5 1.2-3.1 1.2-4.9 0-2.7-.9-4.9-2.7-6.8zm2.3 15.5c-2.3 2.5-5.2 3.8-8.9 3.8s-6.7-1.2-8.9-3.8c-2.3-2.5-3.5-5.4-3.5-8.7s1.1-6.2 3.3-8.6c2.4-2.7 5.4-4 9.1-4s6.7 1.3 9.1 4c2.2 2.4 3.3 5.3 3.3 8.6-.1 3.2-1.2 6.1-3.5 8.7zm-21.1-18c-.7-.3-1.2-.4-1.6-.4-1 0-2 .5-2.9 1.2-.9.8-1.7 2.2-2.2 3.9-.4 1.4-.6 4.1-.6 8.2v8.1h-3.2v-23.7h3.1v3.5c.9-1.4 1.9-2.4 2.9-3.1 1-.7 2.1-1 3.2-1 .8 0 1.8.3 2.7.8l-1.4 2.5z"/><defs><path fill="#000000" id="a" d="M567.5 294.2h-3.7l-7.2-10-7.2 10h-3.6l9-12.6-8.2-11.3h3.7l6.3 8.7 6.3-8.7h3.7l-8.1 11.2 9 12.7zm-24.9-18.5c-1.8-1.9-4-2.8-6.6-2.8-2.5 0-4.7.9-6.6 2.8-1.8 1.9-2.7 4.2-2.7 6.8 0 1.7.5 3.4 1.2 4.9.8 1.5 2 2.6 3.4 3.5s3 1.2 4.7 1.2c1.7 0 3.3-.4 4.7-1.2s2.5-2 3.4-3.5c.8-1.5 1.2-3.1 1.2-4.9.1-2.7-.9-4.9-2.7-6.8zm2.4 15.5c-2.3 2.5-5.2 3.8-8.9 3.8s-6.7-1.2-8.9-3.8c-2.3-2.5-3.5-5.4-3.5-8.7s1.1-6.2 3.3-8.6c2.4-2.7 5.4-4 9.1-4s6.7 1.3 9.1 4c2.2 2.4 3.3 5.3 3.3 8.6-.1 3.2-1.2 6.1-3.5 8.7zm-27-13.6c-.8-1.5-2-2.7-3.5-3.6-1.4-.8-3-1.3-4.6-1.3-1.7 0-3.3.5-4.8 1.3s-2.6 2-3.5 3.5c-.8 1.4-1.2 3.1-1.2 4.9 0 2.8.9 5.1 2.7 6.9 1.8 1.9 4 2.8 6.7 2.8 1.7 0 3.3-.5 4.7-1.3s2.6-2.1 3.5-3.6c.8-1.5 1.3-3.1 1.3-4.9 0-1.8-.4-3.2-1.3-4.7zm.9 13.6c-2.4 2.4-5.2 3.7-8.6 3.7-2 0-3.7-.4-5.2-1.2s-3-2.1-4.1-3.8v4.4h-3.1V265h3.1v9.6c1.3-1.6 2.7-2.7 4.3-3.6 1.6-.8 3.3-1.2 5.2-1.2 3.4 0 6.2 1.2 8.6 3.7 2.3 2.4 3.6 5.4 3.6 8.9-.3 3.4-1.5 6.4-3.8 8.8zm-29-15.6c-1.8-1.9-4-2.8-6.7-2.8-1.7 0-3.3.5-4.7 1.2-1.4.8-2.6 2.1-3.5 3.6s-1.3 3.1-1.3 4.8.5 3.3 1.3 4.9c.8 1.5 2 2.7 3.5 3.6 1.4.8 3 1.3 4.7 1.3s3.3-.5 4.8-1.3 2.6-2 3.5-3.5c.8-1.4 1.2-3.1 1.2-4.9-.1-2.8-1-5-2.8-6.9zm2.5 18.6v-4c-1.3 1.6-2.7 2.7-4.3 3.6-1.6.8-3.4 1.2-5.2 1.2-3.4 0-6.3-1.2-8.6-3.7-2.3-2.4-3.6-5.4-3.6-8.9s1.2-6.4 3.6-8.8c2.4-2.4 5.2-3.7 8.6-3.7 2 0 3.7.4 5.3 1.2 1.6.8 3 2.1 4.1 3.8v-4.5h3v23.8h-2.9zm-18.2 0h-4.3L458 283.6v10.8h-3.1V265h3.1v15.1l11-9.6h4.5l-12.9 11.3 13.6 12.4zm-32.1-21.4c-2.9 0-5.2.9-7.2 2.8-1.9 1.9-2.9 4.1-2.9 6.8 0 1.8.5 3.4 1.3 4.9.8 1.5 2.1 2.7 3.7 3.6s3.3 1.3 5.2 1.3c3.5 0 6.4-1.4 8.5-4.2l2.4 1.6c-1.1 1.7-2.6 3.1-4.6 4-1.9.9-4.1 1.4-6.6 1.4-3.7 0-6.8-1.2-9.4-3.6-2.4-2.4-3.7-5.3-3.7-8.7 0-2.3.6-4.5 1.8-6.5 1.2-2.1 2.8-3.6 4.9-4.7 2.1-1.1 4.3-1.7 6.7-1.7 1.6 0 3.1.3 4.6.8 1.5.5 2.7 1.1 3.7 1.9 1 .8 1.9 1.8 2.6 3l-2.4 1.5c-2.1-2.8-5-4.2-8.6-4.2zm-20.4 2.9c-1.9-1.9-4-2.8-6.6-2.8-2.5 0-4.7.9-6.6 2.8-1.8 1.9-2.7 4.2-2.7 6.8 0 1.7.4 3.4 1.2 4.9s2 2.6 3.4 3.5c1.4.8 3 1.2 4.7 1.2s3.3-.4 4.7-1.2c1.4-.8 2.5-2 3.4-3.5.8-1.5 1.2-3.1 1.2-4.9 0-2.7-.9-4.9-2.7-6.8zm2.3 15.5c-2.3 2.5-5.2 3.8-8.9 3.8s-6.7-1.2-8.9-3.8c-2.3-2.5-3.5-5.4-3.5-8.7s1.1-6.2 3.3-8.6c2.4-2.7 5.4-4 9.1-4s6.7 1.3 9.1 4c2.2 2.4 3.3 5.3 3.3 8.6-.1 3.2-1.2 6.1-3.5 8.7zm-21.1-18c-.7-.3-1.2-.4-1.6-.4-1 0-2 .5-2.9 1.2-.9.8-1.7 2.2-2.2 3.9-.4 1.4-.6 4.1-.6 8.2v8.1h-3.2v-23.7h3.1v3.5c.9-1.4 1.9-2.4 2.9-3.1 1-.7 2.1-1 3.2-1 .8 0 1.8.3 2.7.8l-1.4 2.5z"/></defs><clipPath id="b"><use xlink:href="#a" overflow="visible"/></clipPath><path fill="#000000" d="M273.1 204.8h544.8v242H273.1z" clip-path="url(#b)"/></svg>
