<svg xmlns="http://www.w3.org/2000/svg" viewBox="0 0 20 20" enable-background="new 0 0 20 20"><g><path fill="#000000" d="M10 0C4.5 0 0 4.5 0 10s4.5 10 10 10 10-4.5 10-10S15.5 0 10 0zM4.3 5.7L5 5c.1-.1.3-.1.4 0l1.4.9c.1.1.2.2.2.4v.3c0 .1.1.3.2.4l1.5 1.5-1 .9-1.5-1.5c-.1-.1-.3-.2-.4-.2h-.3c-.1 0-.3-.1-.4-.2l-.9-1.4c-.1-.1 0-.3.1-.4zM15.2 14l-1.7 1.7c-.1.1-.3.1-.3 0l-2.9-3.1 1.7-1.8 3.2 2.9c.1.1.1.2 0 .3zm-.8-4.5c-.8.4-1.7.5-2.4.2l-5 4.9-.7.7c-.2.2-.5.2-.7 0l-1.1-1c-.2-.2-.2-.5 0-.7l5.7-5.7c-.4-1.3.1-2.7 1.3-3.4.9-.5 2-.6 2.9.1L12.1 6l1.4 2.2L15.8 7c.1 1.1-.5 2-1.4 2.5z"/></g></svg>
