<svg xmlns="http://www.w3.org/2000/svg" viewBox="0 0 200 196" enable-background="new 0 0 200 196"><path fill="#000000" d="M200 0H0v120h92v8H76v8h48v-8h-16v-8h50.3c-3.8 9-10.7 14-21.7 16-15 2.9-26.7 9-33.2 17.3-1.9 2.5-3.4 5.2-4.3 8.1L90 156l-13 1-14 37 12 2 10.8-12h.9c1.4 1.2 3.3 2 5.3 2s3.9-.8 5.3-2h6.4c1.4 1.2 3.3 2 5.3 2s3.9-.8 5.3-2h.7l10 12 12-2-13-37-13-1-7.2 4.3c.7-1.6 1.6-3.1 2.7-4.5 5.9-7.5 16.8-13.1 30.8-15.8 15.1-2.8 22-10.9 25.3-20H200V0zM85 167v3h-2v-3h-3v-2h3v-3h2v3h3v2h-3zm7 15c-2.2 0-4-1.8-4-4s1.8-4 4-4 4 1.8 4 4-1.8 4-4 4zm29-18c1.1 0 2 .9 2 2s-.9 2-2 2-2-.9-2-2 .9-2 2-2zm-5-5c1.1 0 2 .9 2 2s-.9 2-2 2-2-.9-2-2 .9-2 2-2zm0 10c1.1 0 2 .9 2 2s-.9 2-2 2-2-.9-2-2 .9-2 2-2zm-5-5c1.1 0 2 .9 2 2s-.9 2-2 2-2-.9-2-2 .9-2 2-2zm-2 10c2.2 0 4 1.8 4 4s-1.8 4-4 4-4-1.8-4-4 1.8-4 4-4zm75-60h-4v-4h4v4zm2-10H14V14h172v90z"/></svg>
