<svg xmlns="http://www.w3.org/2000/svg" xmlns:xlink="http://www.w3.org/1999/xlink" viewBox="0 0 187.2 32" enable-background="new 0 0 187.2 32"><defs><path id="a" d="M187.2 31.3h-4l-7.7-10.7-7.7 10.7H164l9.6-13.4-8.7-12.1h3.9l6.7 9.3 6.7-9.3h3.9l-8.6 12 9.7 13.5zm-26.7-19.9c-1.9-2-4.3-3-7-3s-5 1-7 3c-1.9 2-2.9 4.5-2.9 7.3 0 1.8.5 3.6 1.3 5.2.9 1.6 2.1 2.8 3.6 3.7 1.5.9 3.2 1.3 5 1.3 1.8 0 3.5-.4 5-1.3s2.7-2.1 3.6-3.7c.9-1.6 1.3-3.3 1.3-5.2.1-2.8-.9-5.3-2.9-7.3zm2.6 16.6c-2.5 2.7-5.6 4-9.5 4-3.9 0-7.1-1.3-9.5-4-2.5-2.7-3.7-5.8-3.7-9.3 0-3.5 1.2-6.6 3.5-9.2 2.6-2.9 5.8-4.3 9.7-4.3 3.9 0 7.1 1.4 9.7 4.3 2.3 2.6 3.5 5.7 3.5 9.2 0 3.5-1.3 6.6-3.7 9.3zm-28.9-14.6c-.9-1.6-2.1-2.9-3.7-3.8-1.5-.9-3.2-1.4-4.9-1.4-1.8 0-3.5.5-5.1 1.4-1.6.9-2.8 2.1-3.7 3.7-.9 1.5-1.3 3.3-1.3 5.2 0 3 1 5.4 2.9 7.4s4.3 3 7.1 3c1.8 0 3.5-.5 5-1.4 1.5-.9 2.8-2.2 3.7-3.8.9-1.6 1.4-3.3 1.4-5.2s-.4-3.5-1.4-5.1zm.9 14.7c-2.6 2.6-5.6 3.9-9.2 3.9-2.1 0-3.9-.4-5.6-1.3-1.7-.9-3.2-2.2-4.4-4v4.7h-3.3V0h3.3v10.2c1.4-1.7 2.9-2.9 4.6-3.8 1.7-.8 3.5-1.3 5.6-1.3 3.6 0 6.6 1.3 9.2 3.9 2.5 2.6 3.8 5.8 3.8 9.5-.2 3.8-1.5 7-4 9.6zm-31-16.8c-1.9-2-4.3-3-7.1-3-1.8 0-3.5.5-5 1.3-1.5.9-2.8 2.2-3.7 3.8-.9 1.6-1.4 3.3-1.4 5.1 0 1.8.5 3.5 1.4 5.2.9 1.6 2.1 2.9 3.7 3.8 1.5.9 3.2 1.4 5 1.4 1.8 0 3.5-.5 5.1-1.4 1.6-.9 2.8-2.1 3.7-3.7.9-1.5 1.3-3.3 1.3-5.2-.1-2.8-1.1-5.3-3-7.3zm2.7 20V27c-1.4 1.7-2.9 2.9-4.6 3.8-1.7.8-3.6 1.3-5.6 1.3-3.6 0-6.7-1.3-9.2-3.9-2.5-2.6-3.8-5.8-3.8-9.5s1.3-6.8 3.8-9.4C90 6.7 93 5.4 96.6 5.4c2.1 0 4 .4 5.7 1.3 1.7.9 3.2 2.2 4.4 4V5.9h3.2v25.5h-3.1zm-19.4 0h-4.6L70.1 19.9v11.5h-3.3V0h3.3v16.1L81.8 5.9h4.8L72.7 18l14.7 13.3zM53 8.3c-3.1 0-5.6 1-7.7 3-2 2-3.1 4.4-3.1 7.3 0 1.9.5 3.6 1.4 5.2.9 1.6 2.2 2.9 3.9 3.8 1.7.9 3.5 1.4 5.5 1.4 3.7 0 6.8-1.5 9.1-4.5l2.6 1.7c-1.2 1.8-2.8 3.3-4.9 4.3-2 1-4.4 1.5-7 1.5-4 0-7.3-1.3-10-3.8-2.6-2.6-4-5.7-4-9.3 0-2.5.6-4.8 1.9-6.9 1.3-2.2 3-3.8 5.2-5 2.2-1.2 4.6-1.8 7.2-1.8 1.7 0 3.3.3 4.9.8 1.6.5 2.9 1.2 4 2s2 1.9 2.8 3.2l-2.6 1.6c-2.3-3-5.3-4.5-9.2-4.5zm-21.9 3.1c-2-2-4.3-3-7-3s-5 1-7 3c-1.9 2-2.9 4.5-2.9 7.3 0 1.8.4 3.6 1.3 5.2s2.1 2.8 3.6 3.7c1.5.9 3.2 1.3 5 1.3 1.8 0 3.5-.4 5-1.3s2.7-2.1 3.6-3.7c.9-1.6 1.3-3.3 1.3-5.2 0-2.8-.9-5.3-2.9-7.3zM33.6 28c-2.5 2.7-5.6 4-9.5 4-3.9 0-7.1-1.3-9.5-4-2.5-2.7-3.7-5.8-3.7-9.3 0-3.5 1.2-6.6 3.5-9.2 2.6-2.9 5.8-4.3 9.7-4.3 3.9 0 7.1 1.4 9.7 4.3 2.3 2.6 3.5 5.7 3.5 9.2 0 3.5-1.2 6.6-3.7 9.3zM11.1 8.8c-.7-.3-1.3-.4-1.7-.4-1.1 0-2.1.5-3.1 1.3-1 .9-1.8 2.3-2.3 4.2-.4 1.5-.6 4.4-.6 8.8v8.6H0V5.9h3.3v3.7c1-1.5 2-2.6 3.1-3.3 1.1-.7 2.2-1.1 3.4-1.1.9 0 1.9.3 2.9.9l-1.6 2.7z"/></defs><clipPath id="b"><use xlink:href="#a" overflow="visible"/></clipPath><path fill="#414141" d="M-127.9-64.4h583v258.9h-583z" clip-path="url(#b)"/></svg>