<svg xmlns="http://www.w3.org/2000/svg" xmlns:xlink="http://www.w3.org/1999/xlink" viewBox="0 0 374 64" enable-background="new 0 0 374 64"><defs><path id="a" d="M374.5 62.7h-7.9l-15.4-21.4-15.3 21.4H328l19.2-26.8-17.4-24.1h7.8l13.5 18.6 13.3-18.6h7.9l-17.3 24 19.5 26.9zM321 22.9c-3.9-4-8.5-6.1-13.9-6.1s-10.1 2-14 6.1c-3.9 4-5.8 8.9-5.8 14.6 0 3.7.9 7.1 2.7 10.3 1.8 3.2 4.2 5.7 7.2 7.4 3 1.7 6.3 2.6 9.9 2.6 3.6 0 7-.9 10-2.6 3-1.7 5.4-4.2 7.2-7.4 1.8-3.2 2.7-6.6 2.7-10.3-.1-5.7-2-10.6-6-14.6zm5.1 33.1c-4.9 5.3-11.3 8-19 8-7.8 0-14.1-2.7-19.1-8-4.9-5.3-7.4-11.5-7.4-18.7 0-7.1 2.3-13.2 7-18.4 5.1-5.7 11.6-8.6 19.4-8.6 7.8 0 14.3 2.8 19.4 8.5 4.7 5.2 7 11.3 7 18.4.1 7.3-2.3 13.5-7.3 18.8zm-57.6-29.3c-1.8-3.3-4.3-5.8-7.4-7.7-3.1-1.8-6.4-2.7-9.9-2.7-3.6 0-7 .9-10.2 2.7-3.2 1.8-5.7 4.3-7.4 7.4-1.7 3.1-2.6 6.6-2.6 10.4 0 5.9 1.9 10.8 5.8 14.8s8.6 6 14.2 6c3.6 0 7-.9 10-2.7 3.1-1.8 5.5-4.3 7.3-7.6 1.8-3.3 2.7-6.7 2.7-10.3s-.7-7-2.5-10.3zm1.7 29.5c-5.1 5.2-11.3 7.8-18.5 7.8-4.1 0-7.9-.9-11.2-2.7-3.4-1.8-6.3-4.4-8.9-8v9.4h-6.5V0h6.5v20.5c2.7-3.4 5.8-5.9 9.2-7.6 3.4-1.7 7.1-2.5 11.1-2.5 7.2 0 13.3 2.6 18.4 7.8 5.1 5.2 7.6 11.6 7.6 19 0 7.5-2.6 13.8-7.7 19zm-62-33.5c-3.9-4-8.6-6-14.3-6-3.6 0-7 .9-10.1 2.7-3.1 1.8-5.5 4.3-7.3 7.6-1.8 3.3-2.7 6.7-2.7 10.3 0 3.6.9 7 2.7 10.3 1.8 3.3 4.3 5.8 7.4 7.6 3.1 1.8 6.4 2.8 9.9 2.8 3.6 0 6.9-.9 10.1-2.7 3.2-1.8 5.7-4.3 7.4-7.3 1.7-3.1 2.6-6.6 2.6-10.4.1-6-1.8-11-5.7-14.9zm5.4 40v-8.8c-2.7 3.4-5.8 5.9-9.2 7.5-3.4 1.7-7.1 2.5-11.2 2.5-7.2 0-13.3-2.6-18.4-7.8-5.1-5.2-7.6-11.6-7.6-19.1 0-7.3 2.5-13.6 7.7-18.8 5.1-5.2 11.3-7.8 18.5-7.8 4.2 0 7.9.9 11.3 2.7 3.4 1.8 6.3 4.4 8.9 8v-9.4h6.4v51h-6.4zm-38.8 0h-9.2l-25.5-22.9v22.9h-6.5V0h6.5v32.3l23.5-20.6h9.6L145.4 36l29.4 26.7zM106 16.6c-6.2 0-11.3 2-15.4 6s-6.1 8.9-6.1 14.6c0 3.7.9 7.2 2.8 10.5s4.4 5.8 7.7 7.6c3.3 1.8 6.9 2.7 11 2.7 7.4 0 13.5-3 18.2-9l5.2 3.4c-2.4 3.7-5.7 6.5-9.8 8.6-4.1 2-8.7 3-14 3-8 0-14.7-2.5-19.9-7.7-5.3-5.1-7.9-11.3-7.9-18.7 0-4.9 1.2-9.5 3.7-13.8 2.5-4.2 5.9-7.5 10.2-9.9 4.3-2.4 9.2-3.6 14.5-3.6 3.3 0 6.6.5 9.7 1.5 3.1 1 5.8 2.4 7.9 4 2.2 1.7 4 3.8 5.6 6.3l-5.2 3.2c-4.4-5.7-10.5-8.7-18.2-8.7zm-43.8 6.3c-3.9-4-8.6-6.1-14-6.1s-10.1 2-14 6.1c-3.9 4-5.8 8.9-5.8 14.6 0 3.7.9 7.1 2.7 10.3 1.8 3.2 4.2 5.7 7.2 7.4 3 1.7 6.3 2.6 9.9 2.6 3.6 0 6.9-.9 10-2.6 3-1.7 5.4-4.2 7.2-7.4 1.8-3.2 2.7-6.6 2.7-10.3 0-5.7-2-10.6-5.9-14.6zM67.3 56c-4.9 5.3-11.3 8-19 8-7.8 0-14.1-2.7-19.1-8-4.9-5.3-7.4-11.5-7.4-18.7 0-7.1 2.3-13.2 7-18.4 5.1-5.7 11.6-8.6 19.5-8.6 7.8 0 14.3 2.8 19.4 8.5 4.7 5.2 7 11.3 7 18.4 0 7.3-2.5 13.5-7.4 18.8zM22.2 17.7c-1.4-.6-2.5-.9-3.4-.9-2.2 0-4.3.9-6.3 2.7-2 1.8-3.6 4.6-4.6 8.4-.8 2.9-1.2 8.8-1.2 17.6v17.2H0v-51h6.7v7.4c2-2.9 4.1-5.1 6.3-6.6 2.2-1.4 4.5-2.2 6.9-2.2 1.8 0 3.7.6 5.8 1.7l-3.5 5.7z"/></defs><clipPath id="b"><use xlink:href="#a" overflow="visible"/></clipPath><path fill="#414141" d="M-255.9-128.7H910v517.9H-255.9z" clip-path="url(#b)"/></svg>