<svg xmlns="http://www.w3.org/2000/svg" viewBox="0 0 28 28" enable-background="new 0 0 28 28"><path d="M24 4h-3V2H7v2H4c-.5 0-1 .5-1 1 0 3 0 6 1.2 8 1.6 2.8 4.7 4.1 7.9 4 .4.7.8 1.4.9 2.1v.9c0 .9-.4 1.5-.8 2H11v1h-1v3h8v-3h-1v-1h-1.2c-.4-.5-.8-1.1-.8-2v-1.1c.1-.7.4-1.3.7-1.9 1.3.4 3.3-.2 4.5-.7 1.4-.6 2.3-1.4 3.4-2.8s1.5-2 1.5-8.5c-.1-.5-.6-1-1.1-1zM6.9 13.3C4.7 11.1 4.9 8.9 5 6h2c0 1.8 0 2.5.6 4.1.7 1.8 1.8 3.3 3 4.8-1.6-.2-2.8-.7-3.7-1.6.9.9-2-2 0 0zm14.2 0c-1 1-2.3 1.5-4 1.6 1.1-1.4 2.2-2.6 3.2-4.4S21 7.9 21 6h2v2c0 2.9-.9 4.3-1.9 5.3z"/></svg>