<svg xmlns="http://www.w3.org/2000/svg" viewBox="0 0 28 28" enable-background="new 0 0 28 28"><path fill-rule="evenodd" clip-rule="evenodd" d="M26 21c0 .3-.2.5-.5.5h-18c-.3 0-.5-.2-.5-.5v-2c0-.3.2-.5.5-.5h18c.3 0 .5.2.5.5v2zM5 21c0 .3-.2.5-.5.5h-2c-.3 0-.5-.2-.5-.5v-2c0-.3.2-.5.5-.5h2c.3 0 .5.2.5.5v2zm21-6c0 .3-.2.5-.5.5h-18c-.3 0-.5-.2-.5-.5v-2c0-.3.2-.5.5-.5h18c.3 0 .5.2.5.5v2zM5 15c0 .3-.2.5-.5.5h-2c-.3 0-.5-.2-.5-.5v-2c0-.3.2-.5.5-.5h2c.3 0 .5.2.5.5v2zm21-6c0 .3-.2.5-.5.5h-18c-.3 0-.5-.2-.5-.5V7c0-.3.2-.5.5-.5h18c.3 0 .5.2.5.5v2zM5 9c0 .3-.2.5-.5.5h-2c-.3 0-.5-.2-.5-.5V7c0-.3.2-.5.5-.5h2c.3 0 .5.2.5.5v2z"/></svg>