<svg xmlns="http://www.w3.org/2000/svg" viewBox="0 0 28 28" enable-background="new 0 0 28 28"><g><path d="M27 2H1c-.5 0-1 .5-1 1v17c0 .5.5 1 1 1h11v1c0 2-2 2-2 2H6.4c-.2 0-.4.2-.4.4V26h16v-1.6c0-.2-.2-.4-.4-.4H18s-2 0-2-2v-1h11c.5 0 1-.5 1-1V3c0-.5-.5-1-1-1zm-1 18h-1v-1h1v1zm0-2H2V4h24v14zM7.5 13.5h3.2l.8 2.4h2.7L10.3 6H7.9L4 15.8h2.7l.8-2.3zm1.6-5l1 3h-2l1-3zM22.8 14.6c.8-.8 1.2-2 1.2-3.6s-.4-2.8-1.2-3.7C22 6.4 20.9 6 19.3 6h-3.5v9.8h3.5c1.6 0 2.7-.4 3.5-1.2zm-4.5-6.5h1c1.4 0 2.1 1 2.1 2.9s-.7 2.8-2.1 2.8h-1V8.1z"/></g></svg>