<svg xmlns="http://www.w3.org/2000/svg" viewBox="0 0 28 28" enable-background="new 0 0 28 28"><path d="M14 2C7.4 2 2 7.4 2 14s5.4 12 12 12 12-5.4 12-12S20.6 2 14 2zM7.1 8.9L8 8c.1-.1.3-.1.5 0l1.7 1.1c.1.1.2.3.2.5v.3c0 .2.1.4.2.5l1.8 1.8-1.1 1.1-1.8-1.7c-.1-.1-.3-.2-.5-.2h-.3c-.2 0-.4-.1-.5-.2L7.1 9.3c-.1-.1-.1-.3 0-.4zm13.1 9.9l-2.1 2.1c-.1.1-.3.1-.4 0l-3.4-3.8 2.1-2.2 3.8 3.5c.1.1.1.3 0 .4zm-.9-5.4c-.9.5-2 .6-2.9.3l-6 5.9-.8.8c-.2.2-.6.2-.8 0l-1.3-1.3c-.2-.2-.2-.6 0-.8l6.9-6.8c-.5-1.5.1-3.2 1.6-4 1.1-.6 2.4-.7 3.5.1l-3 1.6 1.7 2.6 2.9-1.4c0 1.4-.7 2.4-1.8 3z"/></svg>