<svg xmlns="http://www.w3.org/2000/svg" viewBox="0 0 28 28" enable-background="new 0 0 28 28"><g><path d="M27 2H1c-.5 0-1 .5-1 1v17c0 .5.5 1 1 1h11v1c0 2-2 2-2 2H6.4c-.2 0-.4.2-.4.4V26h16v-1.6c0-.2-.2-.4-.4-.4H18s-2 0-2-2v-1h11c.5 0 1-.5 1-1V3c0-.5-.5-1-1-1zm-1 18h-1v-1h1v1zm0-2H2V4h24v14zM24 11.4S20.6 6 14 6 4 11.4 4 11.4 8.8 16 14 16s10-4.6 10-4.6zm-4.7-1.8c1.4.6 2.5 1.3 3.1 1.8-.8.6-2.5 1.8-4.6 2.6 1-.9 1.6-2.1 1.6-3.5 0-.3 0-.6-.1-.9zm-5.9 2.1l-.5.4c-.4-.2-.6-.5-.8-.9l.5-.5c.1.4.4.8.8 1zm-7.5-.3c.5-.5 1.5-1.1 2.8-1.7-.1.3-.1.6-.1.9 0 1.3.6 2.5 1.5 3.4-1.9-.8-3.5-1.9-4.2-2.6zm4.1-.8c0-.5.1-1 .4-1.5.7-.2 1.4-.4 2.1-.5-.7.4-1.2 1.2-1.2 2 0 1.4 1.2 2.4 2.7 2.4 1.5 0 2.7-1.1 2.7-2.4 0-.8-.5-1.6-1.2-2 .8 0 1.5.2 2.1.4.2.5.4 1 .4 1.5 0 2-1.8 3.7-4 3.7s-4-1.6-4-3.6z"/></g></svg>