<svg xmlns="http://www.w3.org/2000/svg" viewBox="0 0 28 28" enable-background="new 0 0 28 28"><path d="M21.5 16.5c-.7 0-1.4.2-2 .6l-2-2c.3-.5.5-1 .5-1.6 0-.4-.1-.8-.3-1.2l3.2-2.3c.4.3 1 .6 1.6.6 1.4 0 2.5-1.1 2.5-2.5s-1.1-2.5-2.5-2.5S20 6.6 20 8c0 .3.1.6.2.9L17 11.3c-.5-.5-1.2-.8-2-.8h-.2l-1-3.4C14.5 6.7 15 5.9 15 5c0-1.4-1.1-2.5-2.5-2.5S10 3.6 10 5s1.1 2.5 2.5 2.5h.1l1 3.4c-.5.3-.9.7-1.2 1.2L8 11c0-1.4-1.1-2.5-2.5-2.5S3 9.6 3 11s1.1 2.5 2.5 2.5c.9 0 1.7-.5 2.2-1.3l4.4 1.1v.1c0 .6.2 1.1.5 1.6l-3.1 3.1c-.7-.5-1.5-.8-2.3-.8-2.2 0-4 1.8-4 4s1.8 4 4 4 4-1.8 4-4c0-.9-.3-1.7-.8-2.3l3.1-3.1c.5.3 1 .5 1.6.5s1.1-.2 1.6-.5l2 2c-.4.6-.6 1.2-.6 2 0 1.9 1.6 3.5 3.5 3.5S25 21.9 25 20s-1.6-3.5-3.5-3.5z"/></svg>