<svg xmlns="http://www.w3.org/2000/svg" viewBox="0 0 28 28" enable-background="new 0 0 28 28"><path d="M7.3 12.6c.5 0 .9-.2 1.3-.4l3.7 2.3v.2c0 1.3 1 2.4 2.3 2.4 1.3 0 2.3-1.1 2.3-2.4 0-.3-.1-.6-.2-.8L21 9.1l2.5 2.2L25.1 3l-7.8 2.8 2.2 2-4.2 4.7c-.2-.1-.4-.1-.7-.1-.5 0-.9.1-1.2.4l-3.8-2.3v-.1c0-1.3-1-2.4-2.3-2.4C6 7.9 5 8.9 5 10.2c0 .2 0 .4.1.6l-3.1 3v2.8l4.4-4.2c.3.1.6.2.9.2zm0 8.5c.6 0 1.2-.3 1.6-.7l6.6 2.5c.1 1.2 1.1 2.1 2.3 2.1 1.3 0 2.3-1.1 2.3-2.4 0-.3-.1-.6-.2-.9l3.9-4.5 1.5 1.2.7-5.7-5.2 2.2 1.3 1.1-3.8 4.4c-.2-.1-.4-.1-.6-.1-.6 0-1.2.2-1.6.6l-6.7-2.5c-.1-1.2-1.1-2-2.3-2-1.1-.1-2.1 1-2.1 2.3v.2l-3 1.9v2.4l4-2.5c.4.2.8.4 1.3.4z"/></svg>