<?xml version="1.0" encoding="utf-8"?>
<!-- Generator: Adobe Illustrator 18.1.1, SVG Export Plug-In . SVG Version: 6.00 Build 0)  -->
<svg version="1.1" id="Layer_1" xmlns="http://www.w3.org/2000/svg" xmlns:xlink="http://www.w3.org/1999/xlink" x="0px" y="0px"
	 viewBox="0 0 28 28" enable-background="new 0 0 28 28" xml:space="preserve">
<g id="Calendar">
	<path d="M2.5,9v16c0,0.5,0.5,1,1,1h21c0.5,0,1-0.5,1-1V9H2.5z M7.5,24h-3v-3h3V24z M7.5,20h-3v-3h3V20z M7.5,16h-3v-3h3V16z
		 M11.5,24h-3v-3h3V24z M11.5,20h-3v-3h3V20z M11.5,16h-3v-3h3V16z M15.5,24h-3v-3h3V24z M15.5,20h-3v-3h3V20z M15.5,16h-3v-3h3V16z
		 M19.5,24h-3v-3h3V24z M19.5,20h-3v-3h3V20z M19.5,16h-3v-3h3V16z M23.5,24h-3v-3h3V24z M23.5,20h-3v-3h3V20z M23.5,16h-3v-3h3V16z
		 M25.5,5v3h-23V5c0-0.5,0.5-1,1-1h2V3c0-0.5,0.5-1,1-1h1c0.5,0,1,0.5,1,1v1h11V3c0-0.5,0.5-1,1-1h1c0.5,0,1,0.5,1,1v1h2
		C25,4,25.5,4.5,25.5,5z"/>
</g>
</svg>
