<?xml version="1.0" encoding="utf-8"?>
<!-- Generator: Adobe Illustrator 18.1.1, SVG Export Plug-In . SVG Version: 6.00 Build 0)  -->
<svg version="1.1" id="Layer_1" xmlns="http://www.w3.org/2000/svg" xmlns:xlink="http://www.w3.org/1999/xlink" x="0px" y="0px"
	 viewBox="0 0 28 28" enable-background="new 0 0 28 28" xml:space="preserve">
<g id="Info">
	<path d="M14,2C7.4,2,2,7.4,2,14s5.4,12,12,12c6.6,0,12-5.4,12-12S20.6,2,14,2z M13,7.6c0-0.3,0.2-0.5,0.5-0.5h2
		c0.3,0,0.5,0.2,0.5,0.5v2c0,0.3-0.2,0.5-0.5,0.5h-2c-0.3,0-0.5-0.2-0.5-0.5V7.6z M17.9,20.4c0,0.3-0.2,0.5-0.5,0.5h-5.9
		c-0.3,0-0.5-0.2-0.5-0.5v-2c0-0.3,0.2-0.5,0.5-0.5H13V14h-1.5c-0.3,0-0.5-0.2-0.5-0.5v-2c0-0.3,0.2-0.5,0.5-0.5h3.9
		c0.3,0,0.5,0.2,0.5,0.5v6.4h1.5c0.3,0,0.5,0.2,0.5,0.5V20.4z"/>
</g>
</svg>
