<?xml version="1.0" encoding="utf-8"?>
<!-- Generator: Adobe Illustrator 18.1.1, SVG Export Plug-In . SVG Version: 6.00 Build 0)  -->
<svg version="1.1" id="Layer_1" xmlns="http://www.w3.org/2000/svg" xmlns:xlink="http://www.w3.org/1999/xlink" x="0px" y="0px"
	 viewBox="0 0 28 28" enable-background="new 0 0 28 28" xml:space="preserve">
<g id="Publish">
	<path d="M13.7,13c0-0.1-0.1-0.1-0.2-0.1c-0.1,0-0.1,0-0.1,0.1l-4.7,5.7c-0.1,0.1,0.2,0.3,0.3,0.3l3,0v5.6c0,0.3-0.1,0.4,0.2,0.4
		l3,0c0.3,0,0.3-0.3,0.3-0.6l0-5.8h2.8c0.1,0,0.2,0,0.1-0.1L13.7,13z"/>
	<path d="M20.3,7.1c-0.6,0-1.2,0.1-1.7,0.3C17.5,4.8,15,3,12.1,3c-4,0-7.2,3.3-7.2,7.4c0,0.3,0,0.5,0,0.8C3.3,11.5,2,13,2,14.8
		c0,2.1,1.7,3.8,3.7,3.8h1.2c0-1,0.1-0.7,0.4-1.1l4.9-5.7c0.3-0.4,0.8-0.6,1.3-0.6c0.6,0,1.1,0.3,1.4,0.7l4.8,5.5
		c0.3,0.4,0.4,0.1,0.4,1.1h0.4c3.1,0,5.5-2.5,5.5-5.8C26,9.6,23.5,7.1,20.3,7.1z"/>
</g>
</svg>
