<?xml version="1.0" encoding="utf-8"?>
<!-- Generator: Adobe Illustrator 18.1.1, SVG Export Plug-In . SVG Version: 6.00 Build 0)  -->
<svg version="1.1" id="Layer_1" xmlns="http://www.w3.org/2000/svg" xmlns:xlink="http://www.w3.org/1999/xlink" x="0px" y="0px"
	 viewBox="0 0 28 28" enable-background="new 0 0 28 28" xml:space="preserve">
<g id="Search">
	<path d="M25.6,22.8l-5.9-5.9c1-1.5,1.5-3.2,1.5-5.1c0-5.2-4.3-9.5-9.5-9.5c-5.2,0-9.5,4.3-9.5,9.5c0,5.2,4.3,9.5,9.5,9.5
		c1.9,0,3.6-0.6,5.1-1.5l5.9,5.9c0.2,0.2,0.5,0.2,0.7,0l2.1-2.1C25.8,23.3,25.8,23,25.6,22.8z M5.3,11.7c0-3.6,2.9-6.5,6.5-6.5
		c3.6,0,6.5,2.9,6.5,6.5c0,3.6-2.9,6.5-6.5,6.5C8.2,18.2,5.3,15.3,5.3,11.7z"/>
</g>
</svg>
