<?xml version="1.0" encoding="utf-8"?>
<!-- Generator: Adobe Illustrator 18.1.1, SVG Export Plug-In . SVG Version: 6.00 Build 0)  -->
<svg version="1.1" id="Layer_1" xmlns="http://www.w3.org/2000/svg" xmlns:xlink="http://www.w3.org/1999/xlink" x="0px" y="0px"
	 viewBox="0 0 28 28" enable-background="new 0 0 28 28" xml:space="preserve">
<g id="Settings">
	<path d="M25.8,15.5c0.1-0.5,0.1-1,0.1-1.5c0-0.5,0-1-0.1-1.5l-3.2-0.8c-0.2-0.8-0.5-1.5-0.9-2.2l1.7-2.8c-0.6-0.8-1.4-1.5-2.2-2.2
		l-2.8,1.7c-0.7-0.4-1.4-0.7-2.2-0.9l-0.8-3.2C15,2.1,14.5,2,14,2c-0.5,0-1,0-1.5,0.1l-0.8,3.2c-0.8,0.2-1.5,0.5-2.2,0.9L6.7,4.5
		C5.9,5.2,5.2,5.9,4.5,6.7l1.7,2.8c-0.4,0.7-0.7,1.4-0.9,2.2l-3.2,0.8C2.1,13,2,13.5,2,14c0,0.5,0,1,0.1,1.5l3.2,0.8
		c0.2,0.8,0.5,1.5,0.9,2.2l-1.7,2.8c0.6,0.8,1.4,1.5,2.2,2.2l2.8-1.7c0.7,0.4,1.4,0.7,2.2,0.9l0.8,3.2c0.5,0.1,1,0.1,1.5,0.1
		c0.5,0,1,0,1.5-0.1l0.8-3.2c0.8-0.2,1.5-0.5,2.2-0.9l2.8,1.7c0.8-0.6,1.5-1.4,2.2-2.2l-1.7-2.8c0.4-0.7,0.7-1.4,0.9-2.2L25.8,15.5z
		 M14,18.2c-2.3,0-4.2-1.9-4.2-4.2c0-2.3,1.9-4.2,4.2-4.2c2.3,0,4.2,1.9,4.2,4.2C18.2,16.3,16.3,18.2,14,18.2z"/>
</g>
</svg>
