<svg xmlns="http://www.w3.org/2000/svg" viewBox="0 0 28 28" enable-background="new 0 0 28 28"><path d="M25.8 15.5c.1-.5.1-1 .1-1.5s0-1-.1-1.5l-3.2-.8c-.2-.8-.5-1.5-.9-2.2l1.7-2.8c-.6-.8-1.4-1.5-2.2-2.2l-2.8 1.7c-.7-.4-1.4-.7-2.2-.9l-.8-3.2c-.4 0-.9-.1-1.4-.1-.5 0-1 0-1.5.1l-.8 3.2c-.8.2-1.5.5-2.2.9L6.7 4.5c-.8.7-1.5 1.4-2.2 2.2l1.7 2.8c-.4.7-.7 1.4-.9 2.2l-3.2.8c0 .5-.1 1-.1 1.5s0 1 .1 1.5l3.2.8c.2.8.5 1.5.9 2.2l-1.7 2.8c.6.8 1.4 1.5 2.2 2.2l2.8-1.7c.7.4 1.4.7 2.2.9l.8 3.2c.5.1 1 .1 1.5.1s1 0 1.5-.1l.8-3.2c.8-.2 1.5-.5 2.2-.9l2.8 1.7c.8-.6 1.5-1.4 2.2-2.2l-1.7-2.8c.4-.7.7-1.4.9-2.2l3.1-.8zM14 18.2c-2.3 0-4.2-1.9-4.2-4.2 0-2.3 1.9-4.2 4.2-4.2 2.3 0 4.2 1.9 4.2 4.2 0 2.3-1.9 4.2-4.2 4.2z"/></svg>