<?xml version="1.0" encoding="utf-8"?>
<!-- Generator: Adobe Illustrator 18.1.1, SVG Export Plug-In . SVG Version: 6.00 Build 0)  -->
<svg version="1.1" id="Layer_1" xmlns="http://www.w3.org/2000/svg" xmlns:xlink="http://www.w3.org/1999/xlink" x="0px" y="0px"
	 viewBox="0 0 28 28" enable-background="new 0 0 28 28" xml:space="preserve">
<path id="Tick" d="M25.8,7.3l-2.7-2.7c-0.2-0.2-0.6-0.2-0.8,0L9.9,16.8l-4.2-4.1c-0.2-0.2-0.6-0.2-0.8,0l-2.7,2.7
	c-0.2,0.2-0.2,0.6,0,0.8L7,20.9c0,0,0,0,0,0.1l2.4,2.3c0.1,0.1,0.3,0.2,0.4,0.2c0.1,0,0.3-0.1,0.4-0.2l2.4-2.3c0,0,0,0,0,0L25.8,8.1
	C26.1,7.9,26.1,7.5,25.8,7.3z"/>
</svg>
