<svg xmlns="http://www.w3.org/2000/svg" viewBox="0 0 28 28" enable-background="new 0 0 28 28"><g><path d="M23.5 4H18V2c0-1.1-.9-2-2-2h-4c-1.1 0-2 .9-2 2v2H4.5c-.3 0-.5.2-.5.5v1c0 .3.2.5.5.5h19c.3 0 .5-.2.5-.5v-1c0-.3-.2-.5-.5-.5zM12 4V2h4v2h-4zM22.3 7H5.5c-.4 0-.5.2-.5.5v20.2s.1.3.5.3h16.8c.4 0 .7-.2.7-.5V7.4c0-.3-.3-.4-.7-.4zM10 24.5c0 .3-.2.5-.5.5h-1c-.3 0-.5-.2-.5-.5v-14c0-.3.2-.5.5-.5h1c.3 0 .5.2.5.5v14zm5 0c0 .3-.2.5-.5.5h-1c-.3 0-.5-.2-.5-.5v-14c0-.3.2-.5.5-.5h1c.3 0 .5.2.5.5v14zm5 0c0 .3-.2.5-.5.5h-1c-.3 0-.5-.2-.5-.5v-14c0-.3.2-.5.5-.5h1c.3 0 .5.2.5.5v14z"/></g></svg>