<?xml version="1.0" encoding="utf-8"?>
<!-- Generator: Adobe Illustrator 18.1.1, SVG Export Plug-In . SVG Version: 6.00 Build 0)  -->
<svg version="1.1" id="Layer_1" xmlns="http://www.w3.org/2000/svg" xmlns:xlink="http://www.w3.org/1999/xlink" x="0px" y="0px"
	 viewBox="0 0 28 28" enable-background="new 0 0 28 28" xml:space="preserve">
<g id="Add">
	<path d="M16.3,16.3l8.1,0c0.3,0,0.6-0.3,0.6-0.6l0-3.4c0-0.3-0.3-0.6-0.6-0.6l-8.1,0l0-8.1C16.3,3.3,16,3,15.7,3l-3.4,0
		c-0.3,0-0.6,0.3-0.6,0.6l0,8.1l-8.1,0C3.3,11.7,3,12,3,12.3l0,3.4c0,0.3,0.3,0.6,0.6,0.6h8.1l0,8.1c0,0.3,0.3,0.6,0.6,0.6l3.4,0
		c0.3,0,0.6-0.3,0.6-0.6V16.3z"/>
</g>
</svg>
