<?xml version="1.0" encoding="utf-8"?>
<!-- Generator: Adobe Illustrator 18.1.1, SVG Export Plug-In . SVG Version: 6.00 Build 0)  -->
<svg version="1.1" id="Layer_1" xmlns="http://www.w3.org/2000/svg" xmlns:xlink="http://www.w3.org/1999/xlink" x="0px" y="0px"
	 viewBox="0 0 28 28" enable-background="new 0 0 28 28" xml:space="preserve">
<g id="Duplicate">
	<path d="M17,8H6C5.5,8,5,8.5,5,9v15c0,0.6,0.5,1,1,1h11c0.5,0,1-0.5,1-1V9C18,8.5,17.5,8,17,8z"/>
	<path d="M22,3H12c-0.5,0-1,0.5-1,1v2h8c0.5,0,1,0.5,1,1v13h2c0.5,0,1-0.5,1-1V4C23,3.5,22.5,3,22,3z"/>
</g>
</svg>
