<?xml version="1.0" encoding="utf-8"?>
<!-- Generator: Adobe Illustrator 18.1.1, SVG Export Plug-In . SVG Version: 6.00 Build 0)  -->
<svg version="1.1" id="Layer_1" xmlns="http://www.w3.org/2000/svg" xmlns:xlink="http://www.w3.org/1999/xlink" x="0px" y="0px"
	 viewBox="0 0 28 28" enable-background="new 0 0 28 28" xml:space="preserve">
<g id="Log_On__x2F_Off">
	<path d="M13.2,12h1.5c0.4,0,0.8-0.5,0.8-1V3c0-0.6-0.3-1-0.8-1h-1.5c-0.4,0-0.8,0.5-0.8,1v8C12.5,11.5,12.8,12,13.2,12z"/>
	<path d="M19.5,5.5C18.8,5.1,18,5.6,18,6.3v1.2c0,0.3,0.2,0.6,0.5,0.8C20.6,9.8,22,12.2,22,15h0c0,4.4-3.6,8-8,8s-8-3.6-8-8
		c0-2.8,1.4-5.2,3.5-6.6C9.8,8.2,10,7.9,10,7.5V6.4c0-0.8-0.8-1.3-1.5-0.9C5.2,7.4,3,10.9,3,15h0c0,6.1,4.9,11,11,11s11-4.9,11-11
		C25,10.9,22.8,7.4,19.5,5.5z"/>
</g>
</svg>
