<?xml version="1.0" encoding="utf-8"?>
<!-- Generator: Adobe Illustrator 18.1.1, SVG Export Plug-In . SVG Version: 6.00 Build 0)  -->
<svg version="1.1" id="Layer_1" xmlns="http://www.w3.org/2000/svg" xmlns:xlink="http://www.w3.org/1999/xlink" x="0px" y="0px"
	 viewBox="0 0 28 28" enable-background="new 0 0 28 28" xml:space="preserve">
<g id="Pause">
	<path d="M11,4H7C6.5,4,6,4.5,6,5v18c0,0.6,0.5,1,1,1h4c0.5,0,1-0.5,1-1V5C12,4.5,11.5,4,11,4z"/>
	<path d="M21,4h-4c-0.5,0-1,0.5-1,1v18c0,0.6,0.5,1,1,1h4c0.5,0,1-0.5,1-1V5C22,4.5,21.5,4,21,4z"/>
</g>
</svg>
