<?xml version="1.0" encoding="utf-8"?>
<!-- Generator: Adobe Illustrator 18.1.1, SVG Export Plug-In . SVG Version: 6.00 Build 0)  -->
<svg version="1.1" id="Layer_1" xmlns="http://www.w3.org/2000/svg" xmlns:xlink="http://www.w3.org/1999/xlink" x="0px" y="0px"
	 viewBox="0 0 28 28" enable-background="new 0 0 28 28" xml:space="preserve">
<g id="Refresh">
	<path d="M5.3,16.9l-2.9,0C1.5,13.6,2.1,10,4.3,7.1C8,2,15.2,0.7,20.6,4.1l0.1,0l1.5-2c0.2-0.2,0.4-0.2,0.4,0.1l1.9,6.1
		c0.1,0.3-0.1,0.5-0.4,0.5l-6.5,0.1c-0.3,0-0.4-0.2-0.2-0.4l1.4-2C14.8,4,9.5,5,6.7,8.8c-1.8,2.4-2.1,5.4-1.2,8L5.3,16.9z
		 M25.6,11.1l-3.1,0.1c0.9,2.6,0.5,5.6-1.2,8C18.5,23,13.2,24,9.1,21.4l1.4-2c0.2-0.2,0.1-0.4-0.2-0.4l-6.5,0.1
		c-0.3,0-0.4,0.2-0.4,0.5l1.9,6.1c0.1,0.3,0.3,0.3,0.4,0.1l1.5-2l0.1,0c5.4,3.5,12.5,2.2,16.3-3C25.9,18,26.5,14.4,25.6,11.1z"/>
</g>
</svg>
