<?xml version="1.0" encoding="utf-8"?>
<!-- Generator: Adobe Illustrator 18.1.1, SVG Export Plug-In . SVG Version: 6.00 Build 0)  -->
<svg version="1.1" id="Layer_1" xmlns="http://www.w3.org/2000/svg" xmlns:xlink="http://www.w3.org/1999/xlink" x="0px" y="0px"
	 viewBox="0 0 28 28" enable-background="new 0 0 28 28" xml:space="preserve">
<g id="Time">
	<g id="clock_3_">
		<path d="M14,2C7.4,2,2,7.4,2,14s5.4,12,12,12c6.6,0,12-5.4,12-12S20.6,2,14,2z M19.2,9.5c0.2,0.2,0.2,0.5,0,0.7l-3.3,3.3
			c0,0.2,0.1,0.3,0.1,0.5c0,1.1-0.9,2-2,2c-0.7,0-1.4-0.5-1.7-1H9.5C9.2,15,9,14.8,9,14.5v-1C9,13.2,9.2,13,9.5,13h2.8
			c0.3-0.5,1-1,1.7-1c0.2,0,0.4,0,0.6,0.1l3.2-3.2c0.2-0.2,0.5-0.2,0.7,0L19.2,9.5z M14,23c-5,0-9-4-9-9s4-9,9-9c5,0,9,4,9,9
			S19,23,14,23z"/>
	</g>
</g>
</svg>
