<?xml version="1.0" encoding="utf-8"?>
<!-- Generator: Adobe Illustrator 18.1.1, SVG Export Plug-In . SVG Version: 6.00 Build 0)  -->
<svg version="1.1" id="Layer_1" xmlns="http://www.w3.org/2000/svg" xmlns:xlink="http://www.w3.org/1999/xlink" x="0px" y="0px"
	 viewBox="0 0 28 28" enable-background="new 0 0 28 28" xml:space="preserve">
<g id="Trash">
	<path d="M23.5,4H18V2c0-1.1-0.9-2-2-2h-4c-1.1,0-2,0.9-2,2v2H4.5C4.2,4,4,4.2,4,4.5v1C4,5.8,4.2,6,4.5,6h19C23.8,6,24,5.8,24,5.5
		v-1C24,4.2,23.8,4,23.5,4z M12,4L12,4l0-2h4v2H12z"/>
	<path d="M22.3,7H5.5C5.1,7,5,7.2,5,7.5v20.2c0,0,0.1,0.3,0.5,0.3h16.8c0.4,0,0.7-0.2,0.7-0.5V7.4C23,7.1,22.7,7,22.3,7z M10,24.5
		c0,0.3-0.2,0.5-0.5,0.5h-1C8.2,25,8,24.8,8,24.5v-14C8,10.2,8.2,10,8.5,10h1c0.3,0,0.5,0.2,0.5,0.5V24.5z M15,24.5
		c0,0.3-0.2,0.5-0.5,0.5h-1c-0.3,0-0.5-0.2-0.5-0.5v-14c0-0.3,0.2-0.5,0.5-0.5h1c0.3,0,0.5,0.2,0.5,0.5V24.5z M20,24.5
		c0,0.3-0.2,0.5-0.5,0.5h-1c-0.3,0-0.5-0.2-0.5-0.5v-14c0-0.3,0.2-0.5,0.5-0.5h1c0.3,0,0.5,0.2,0.5,0.5V24.5z"/>
</g>
</svg>
