<?xml version="1.0" encoding="utf-8"?>
<!-- Generator: Adobe Illustrator 18.1.1, SVG Export Plug-In . SVG Version: 6.00 Build 0)  -->
<svg version="1.1" id="Layer_1" xmlns="http://www.w3.org/2000/svg" xmlns:xlink="http://www.w3.org/1999/xlink" x="0px" y="0px"
	 viewBox="0 0 28 28" enable-background="new 0 0 28 28" xml:space="preserve">
<g id="Ad_Unit">
	<path d="M27,2H1C0.5,2,0,2.5,0,3v17c0,0.5,0.5,1,1,1h11c0,0.2,0,0.5,0,1c0,2-2,2-2,2H6.4C6.2,24,6,24.2,6,24.4V26h16v-1.6
		c0-0.2-0.2-0.4-0.4-0.4H18c0,0-2,0-2-2c0-0.5,0-0.8,0-1h11c0.5,0,1-0.5,1-1V3C28,2.5,27.5,2,27,2z M26,20h-1v-1h1V20z M26,18H2V4
		h24V18z"/>
	<path d="M7.5,13.5h3.2l0.8,2.4h2.7L10.3,6H7.9L4,15.8h2.7L7.5,13.5z M9.1,8.5l1,3h-2L9.1,8.5z"/>
	<path d="M22.8,14.6c0.8-0.8,1.2-2,1.2-3.6c0-1.6-0.4-2.8-1.2-3.7C22,6.4,20.9,6,19.3,6h-3.5v9.8h3.5C20.9,15.8,22,15.4,22.8,14.6z
		 M18.3,8.1h1c1.4,0,2.1,1,2.1,2.9c0,1.9-0.7,2.8-2.1,2.8h-1V8.1z"/>
</g>
</svg>
