<?xml version="1.0" encoding="utf-8"?>
<!-- Generator: Adobe Illustrator 18.1.1, SVG Export Plug-In . SVG Version: 6.00 Build 0)  -->
<svg version="1.1" id="Layer_1" xmlns="http://www.w3.org/2000/svg" xmlns:xlink="http://www.w3.org/1999/xlink" x="0px" y="0px"
	 viewBox="0 0 28 28" enable-background="new 0 0 28 28" xml:space="preserve">
<g id="Creative">
	<polygon points="23.3,13.7 22.6,11.1 21.8,13.7 19.1,14.5 21.7,15.3 22.5,18 23.3,15.3 26,14.6 	"/>
	<polygon points="17.5,16.2 16.5,19.6 13.1,20.6 16.5,21.6 17.5,25.1 18.5,21.6 22,20.6 18.5,19.6 	"/>
	<path d="M18,8L2.3,23.7c-0.2,0.2-0.2,0.5,0,0.7l1.4,1.4c0.2,0.2,0.5,0.2,0.7,0l15.7-15.7L18,8z"/>
	<path d="M25.7,4.5c0.2-0.2,0.2-0.5,0-0.7l-1.4-1.4c-0.2-0.2-0.5-0.2-0.7,0l-4,4l2.1,2.1L25.7,4.5z"/>
	<polygon points="8.5,15 10,10.1 14.9,8.6 10,7.1 8.5,2.1 7,7.1 2,8.6 7,10.1 	"/>
</g>
</svg>
