<?xml version="1.0" encoding="utf-8"?>
<!-- Generator: Adobe Illustrator 18.1.1, SVG Export Plug-In . SVG Version: 6.00 Build 0)  -->
<svg version="1.1" id="Layer_1" xmlns="http://www.w3.org/2000/svg" xmlns:xlink="http://www.w3.org/1999/xlink" x="0px" y="0px"
	 viewBox="0 0 28 28" enable-background="new 0 0 28 28" xml:space="preserve">
<path id="Finance" d="M16.3,12.1c-0.5-0.1-0.5-0.3-1.6-0.4V6.5c2.2,0.4,2.7,1.5,2.8,3.5h4.7c0-5-3.1-7-7.5-7.4V1h-2.2v1.6
	C9,3,5.5,5.1,5.5,9.2c0,4.1,3.3,5.4,6.6,6.2c0.2,0,0.4,0.1,0.5,0.1v6C10.9,21,9.7,20,9.7,18H5c0,4,3.4,6.9,7.6,7.4V27h2.2v-1.6
	c5.5-0.4,8.2-3.2,8.2-7C23,13.5,17.9,12.5,16.3,12.1z M12.6,11c-1.9-0.6-2.4-1.1-2.4-2.2c0-1.5,1.2-2.2,2.4-2.4V11z M14.8,21.7v-5.4
	c2.2,0.5,3.3,1.2,3.3,2.8C18,20.8,16.9,21.5,14.8,21.7z"/>
</svg>
